<svg width="48" height="48" viewBox="0 0 48 48" fill="none" xmlns="http://www.w3.org/2000/svg">
<path d="M24.7763 7.01427C26.1419 6.83863 27.5854 8.3172 26.8916 9.6619C26.7458 9.94436 26.7277 10.1661 26.4349 10.3235C26.3918 10.5373 26.2565 11.2082 26.0995 11.323C25.9747 11.344 25.8572 11.236 25.7504 11.1611C25.7179 11.2155 25.632 11.3955 25.5995 11.3964C25.362 11.4029 25.5246 11.4531 25.3987 11.5568C25.0855 11.5906 25.2439 11.7499 25.097 11.8936C24.7694 12.2141 24.3302 11.7326 24.1097 11.5053C23.9916 11.7593 23.8177 11.8957 23.6855 12.0611C23.735 12.1119 23.9666 12.3641 24.0123 12.3925C24.9484 12.9732 25.393 14.0623 25.385 15.1348C25.3815 15.6055 25.6917 16.0394 25.8136 16.4886C25.8335 16.5553 25.8258 16.8239 25.8508 16.869C25.99 17.1196 26.1911 18.0922 26.302 18.2602C26.5021 18.5633 26.9765 18.84 27.1983 19.192C27.4567 19.6021 27.645 19.958 27.8584 20.3885C28.2148 21.0589 28.7275 21.7524 29.1988 22.3487C29.5589 22.6827 30.1877 22.8375 30.5251 23.1657C30.5646 23.2045 30.8184 23.977 30.8598 24.0815C30.8236 24.3027 30.6852 25.0361 30.4904 25.1291L30.436 25.1096C30.3433 25.0089 30.3426 24.898 30.3636 24.7704C30.3986 24.5567 30.411 24.37 30.406 24.1539C30.346 24.0876 30.1981 23.944 30.1963 23.9422C30.0369 23.8154 29.826 23.6538 29.826 23.6538C28.7869 23.8967 29.5074 24.3597 29.3659 25.0181C29.3449 25.1154 29.2468 25.1496 29.1554 25.1046C29.0946 25.0281 28.9495 24.5996 28.872 24.4654C28.8399 24.3894 28.8092 24.1845 28.7647 24.1208C28.4467 23.6663 28.3454 23.5578 28.226 23.0015C27.4629 22.1719 26.3496 21.6117 25.6517 20.7043C25.492 20.4966 25.3502 20.2894 25.2047 20.0724L25.2024 20.0955C25.1494 20.6599 25.389 20.8232 25.0366 21.3346C25.0416 21.4443 25.0513 21.5734 25.0365 21.6814C25.0201 21.8016 24.9481 22.024 24.9501 22.1373C24.958 22.5923 24.9578 23.0625 24.9352 23.5177C24.8501 25.0622 24.6585 26.5991 24.3618 28.1173C24.1968 28.9771 23.9938 29.8295 23.7534 30.6715C23.6811 30.9302 23.4815 31.4336 23.4408 31.6455C23.3684 32.0236 23.3213 32.5725 23.2683 32.9702C23.0771 34.4028 22.6677 36.2385 23.0532 37.6451C23.2216 38.0688 23.6443 38.2326 24.0002 38.4878C24.2415 38.6607 24.5746 38.9422 24.8443 39.0515C25.1634 39.1806 25.5558 39.2375 25.8732 39.3863C26.003 39.4455 26.0146 39.7124 25.9354 39.8072C25.6945 40.096 25.2476 39.9604 24.9374 39.9472C24.6902 39.9553 24.2522 39.8799 24.2484 39.8792C24.2484 39.8792 23.2035 39.6181 22.5556 39.7922C20.8211 40.0955 21.0824 39.1351 21.2565 38.0671C21.2565 38.0671 21.3377 36.4478 21.2565 35.953C20.5253 36.4243 20.0708 36.6484 19.2106 36.7353C19.1168 37.4664 19.0306 38.0057 19.5716 38.6076C19.8689 38.9386 20.471 39.4046 20.4766 39.4089L20.6732 39.6016C20.6753 39.6031 20.9343 39.7824 20.918 40.0587C20.8367 40.4655 20.2769 40.326 20.2769 40.326C20.0857 40.4009 20.0056 40.3773 19.7964 40.3675C19.2753 40.3427 18.6958 40.3463 18.2317 40.0767C18.0029 39.9415 17.7242 39.855 17.5387 39.6597C17.4504 39.5705 17.4471 39.4637 17.4608 39.3413C17.5091 38.9095 17.6419 38.0952 17.643 38.0886C17.643 38.0886 17.7256 37.6999 17.733 37.553C17.7453 37.3094 17.7372 37.0724 17.7043 36.8299C17.5638 35.7606 17.3752 34.5752 17.5045 33.5014C17.5334 33.2509 17.5767 33.0026 17.6343 32.7573C17.6741 32.5876 17.8345 32.0467 17.821 31.9128C17.7862 31.5674 17.7436 30.8849 17.6444 30.57C17.519 30.2634 17.2758 29.9992 17.2674 29.6491C17.2084 27.1701 17.4381 24.6843 17.5883 22.2117C17.2201 21.5741 17.4983 21.2761 17.4636 20.6358C17.4489 20.3646 17.2044 19.8021 17.1626 19.4832C17.1086 19.0705 16.9973 18.6474 17.0128 18.2211C17.0222 17.9609 17.0744 17.7052 17.116 17.4511C17.1681 17.1325 17.2176 16.8135 17.2644 16.494C17.2145 16.4311 17.076 16.251 17.047 16.1832C16.8289 15.6743 17.4341 14.5643 17.5512 14.0546C17.6095 13.6988 17.6702 13.3755 17.7755 13.0324C18.2485 11.491 19.2475 10.6245 20.8613 10.4965C21.0156 10.4843 21.2202 10.5556 21.3688 10.6041C22.0486 10.4 22.455 10.0668 22.8491 9.48273C22.9269 9.36743 23.0855 9.10411 23.1125 8.98148C23.2173 8.50535 23.2509 8.12947 23.5653 7.7147C23.8651 7.3192 24.2816 7.08387 24.7763 7.01427ZM18.9506 36.9471C18.423 37.2146 18.0352 38.5698 18.0352 38.5698L18.3465 39.0774L18.3852 39.6545C18.3882 39.6568 18.9475 40.0998 18.975 40.1094C19.0473 40.1018 19.0279 40.1147 19.0686 40.0713C19.0649 39.9322 18.8819 39.7919 18.8772 39.7164C19.1629 39.7159 19.1165 40.1135 19.4158 40.1428L19.4581 40.1213C19.4682 39.957 19.2677 39.818 19.2463 39.6838C19.3452 39.6554 19.4465 39.7778 19.5019 39.8485V39.8486C19.562 39.9728 19.6145 40.1378 19.7701 40.1545C19.9031 40.0508 19.6966 39.8119 19.6251 39.7201L19.5726 39.6466L19.5795 39.6268C19.9191 39.7058 19.8589 39.9817 20.0744 40.1321C20.1545 40.1496 20.1209 40.1515 20.2027 40.1168L20.2224 40.0863C20.1713 39.9273 20.033 39.7294 19.9225 39.6037C20.1786 39.451 20.4292 40.3714 20.7338 39.9771C20.7389 39.9336 20.7497 39.9272 20.7145 39.8912C20.3145 39.484 19.8816 39.2751 19.4964 38.8414C18.9838 38.2638 18.891 37.8966 18.9363 37.1433C18.9403 37.0779 18.945 37.0125 18.9506 36.9471ZM22.686 35.72C22.4753 36.264 22.3709 36.5815 22.1145 37.3174C22.0771 37.6427 22.0771 37.6427 22.1106 38.2036C22.2151 38.4856 22.2395 38.5547 22.2403 38.5568L22.2565 38.594C22.5113 39.1203 22.7678 38.9609 23.2413 39.1024C23.5951 39.208 23.9492 39.4733 24.3153 39.5605C24.5389 39.6193 24.9602 39.5988 24.9618 39.5987C24.9618 39.5987 25.5922 39.8429 25.7546 39.6486C25.7547 39.6484 25.7648 39.5905 25.7367 39.5411C25.7326 39.5397 25.3143 39.4006 25.115 39.3478C24.6535 39.2253 24.3709 38.9861 23.9895 38.7227C23.7456 38.5544 23.4583 38.4055 23.2238 38.2191C23.146 38.1585 22.956 37.9714 22.9157 37.8809C22.6417 37.2675 22.6865 36.578 22.6913 35.9229C22.6918 35.8581 22.6979 35.7829 22.686 35.72ZM23.019 32.3142C22.7496 32.7895 22.4012 33.3315 22.0549 33.7573C21.2112 34.7949 20.2523 35.8715 18.9326 36.2768C18.8996 36.2871 18.7902 36.3173 18.7851 36.3504C20.1853 36.3865 21.5505 35.4748 22.202 34.2865C22.3822 33.9577 23.0515 32.6413 23.019 32.3142ZM24.5745 23.6075C24.0883 24.404 23.3634 25.2977 22.4097 25.5437C22.314 25.5685 22.1538 25.5885 22.0522 25.6027C22.5228 25.3823 22.926 25.1035 23.2714 24.7106C22.5787 24.8115 21.7738 24.4574 21.2942 23.9773C21.2259 23.9089 20.9969 23.6508 20.9319 23.6152C21.1278 24.1979 21.016 24.2527 21.093 24.7622C21.9328 25.0503 21.3419 26.3992 21.2106 27.0254C21.1346 27.3794 21.0883 27.7393 21.0721 28.1011C21.0636 28.3965 21.0727 28.6923 21.0993 28.9866C21.1476 29.5528 21.4097 30.8697 20.6907 31.0925C20.3113 31.598 19.8883 31.8452 19.3376 32.135C19.9719 32.022 20.3893 31.8799 20.937 31.5267C21.0189 31.474 21.1839 31.3375 21.2573 31.3712C21.2794 31.5555 20.9176 32.1978 20.8127 32.3923C20.4958 32.9798 20.2629 33.5586 20.0332 34.1849C20.3253 33.9582 20.557 33.739 20.8229 33.4809C20.2736 34.2968 19.7113 34.9233 19.0011 35.6067C21.6131 35.1539 22.9095 32.1745 23.6324 29.9207C23.7602 29.5222 23.902 29.0173 23.9793 28.6087C24.215 27.6272 24.3884 26.5239 24.5061 25.5205C24.5397 25.2334 24.6017 24.7754 24.6114 24.4977C24.2517 25.6541 23.9962 26.8762 23.6151 28.0309C23.5382 28.2637 23.3082 28.5466 23.2053 28.778C22.7285 29.5931 22.1542 30.7715 21.5645 31.4884C22.356 29.4242 23.5489 27.5187 24.122 25.3736C24.2695 24.8213 24.4681 24.1606 24.5745 23.6075ZM21.3126 25.168C21.2267 24.9889 21.1234 24.9155 20.9169 25.0125C20.6821 25.1225 20.6594 25.6768 20.9329 25.7485C21.0684 25.7839 21.1269 25.5531 21.1463 25.4414C21.1293 25.3701 21.1281 25.3258 21.0727 25.2813C21.0069 25.2734 21.0357 25.2655 20.983 25.3053C20.9588 25.3669 20.9589 25.3689 20.9764 25.4346C21.0059 25.4724 21.0196 25.4827 21.0494 25.4982L21.0859 25.5166C21.0576 25.5673 21.0533 25.5673 20.9997 25.5954C20.7736 25.5993 20.7974 25.2338 20.9198 25.163C21.2151 24.9917 21.3412 25.3636 21.2714 25.6025C21.1381 26.0592 20.81 25.9179 20.4688 25.8322C20.5685 26.296 20.226 26.4073 19.9494 26.0447C19.5187 26.1252 19.2265 25.7955 18.8287 25.6956C18.7643 25.6794 18.6651 25.3776 18.5175 25.463C18.4553 26.1114 18.2609 26.6173 18.258 27.3507C18.255 28.0834 18.4625 28.7824 18.3671 29.4712C18.7002 29.5451 20.5541 29.9209 20.7246 30.0331C20.8027 30.0844 20.8486 30.1941 20.8684 30.2827C20.8939 30.3973 20.8605 30.5292 20.7923 30.6241C20.7493 30.684 20.6808 30.7519 20.6027 30.7593C20.5541 30.7637 20.5106 30.7443 20.4779 30.7085C20.4272 30.6531 20.4011 30.556 20.409 30.4821C20.4178 30.4015 20.5177 30.2958 20.5177 30.2958C20.5187 30.2952 20.5658 30.2734 20.6247 30.3024C20.6568 30.3453 20.6027 30.3993 20.5443 30.4899C20.5443 30.4899 20.5321 30.554 20.5588 30.5737C20.5771 30.5873 20.6162 30.5819 20.6174 30.5818C20.7874 30.4596 20.8037 30.2472 20.6059 30.1367C20.4827 30.1367 20.4808 30.1418 20.4163 30.2281C20.0889 30.6656 20.6388 31.2737 20.9081 30.6638C21.0611 30.249 20.9992 29.7406 20.9405 29.3105C20.8007 28.2865 20.8947 27.2912 21.1906 26.3032C21.2946 25.9554 21.4547 25.5239 21.3126 25.168ZM18.0872 29.5764C17.9465 29.6895 17.902 29.7755 17.8769 29.9566C17.8563 30.1056 17.9151 30.3002 18.0713 30.3582C18.3266 30.4276 18.5952 30.4789 18.8559 30.537C19.3255 30.6438 19.7944 30.7545 20.2621 30.8694C20.1376 30.5501 20.1279 30.3744 20.3371 30.0895C19.8641 29.9857 19.3917 29.8784 18.92 29.7682C18.6698 29.7094 18.3343 29.6174 18.0872 29.5764ZM18.5198 16.1109C18.478 16.4255 18.4494 16.7751 18.3543 17.0782C18.2448 17.4267 17.947 17.7561 18.0809 18.1486C18.1943 18.4805 18.382 18.7786 18.5074 19.1057C18.7278 19.6399 18.8112 20.1161 18.9403 20.6666C18.6259 20.1216 18.2997 19.5804 17.9916 19.0332C18.1389 19.4827 18.2786 19.9205 18.4454 20.3626C18.7387 21.1398 19.3235 22.3684 19.3571 23.1884C19.1951 23.4524 19.0985 23.6475 19.0707 23.9651C19.0525 24.1726 18.972 24.416 18.9842 24.6231C19.0123 24.6796 19.0177 24.7048 19.0684 24.7369C19.2429 24.719 19.2693 24.1406 19.2834 23.9999C19.3425 24.2679 19.2844 24.6079 19.3896 24.7553C19.5346 24.8405 19.615 24.7112 19.7091 24.6073C19.7713 24.7718 19.7762 24.7928 19.9256 24.8803C19.9506 25.146 19.9741 25.4135 20.0023 25.6785C20.193 25.7994 20.2261 25.9138 20.375 26.0686C20.182 25.5317 20.063 24.8505 20.3192 24.3102C20.3333 24.2799 20.3487 24.2502 20.3653 24.2214C20.4828 24.3731 20.5756 24.4861 20.6622 24.6601C20.7358 24.6751 20.8148 24.6935 20.8886 24.7045C20.7858 24.4378 20.6461 24.0648 20.4868 23.8307C20.337 23.611 19.9894 23.3306 19.8865 23.1005C19.8431 23.0035 19.7469 22.6757 19.7124 22.5644C19.5635 22.0838 19.3235 21.3368 19.2944 20.8374C19.263 20.2996 19.3021 19.8788 19.1949 19.3179C19.1561 19.1158 19.1071 18.9156 19.0483 18.7183C18.9795 18.493 18.8879 18.2748 18.8819 18.0511C18.9641 17.8017 19.0979 17.5943 19.2035 17.3573C19.3147 17.1079 19.3943 16.8265 19.4683 16.5642C19.0877 16.3093 18.9573 16.2455 18.5198 16.1109ZM19.5984 24.9963C19.5634 25.2681 19.5789 25.4597 19.6005 25.7329C19.6623 25.7672 19.7287 25.8067 19.7934 25.8339C19.6931 25.5903 19.7559 25.2218 19.5984 24.9963ZM19.2137 25.0341C19.2281 25.2327 19.214 25.5878 19.3696 25.7155C19.3596 25.5602 19.3107 25.1449 19.2137 25.0341ZM20.3677 24.7769C20.3263 25.124 20.3186 25.3115 20.396 25.6612C20.4788 25.6806 20.5687 25.718 20.6343 25.6906C20.6311 25.6362 20.6272 25.6319 20.6042 25.5813C20.5628 25.2887 20.6013 25.0931 20.8292 24.8953C20.6799 24.8552 20.518 24.8083 20.3677 24.7769ZM18.8505 24.9309C18.8533 25.1356 18.8093 25.4309 19.0144 25.5341C18.9961 25.4092 18.9601 24.9953 18.8505 24.9309ZM18.1865 24.4142C17.9861 24.5618 17.8648 24.8513 18.0092 25.0903C18.0762 25.2012 18.3155 25.2261 18.4438 25.2479L18.5649 25.266L18.5844 25.2496C18.5628 24.9623 18.4483 24.7999 18.4488 24.4651C18.3803 24.4503 18.2517 24.4186 18.1865 24.4142ZM20.4671 21.5898C20.8572 22.6441 21.8411 24.9324 23.4333 24.4088C23.4999 24.387 23.5869 24.3409 23.6433 24.2984L23.8432 24.1205C22.6908 24.2613 21.4731 23.034 20.8595 22.1801C20.7433 22.0184 20.588 21.7216 20.4671 21.5898ZM17.6473 21.0877C17.7153 21.4035 17.7231 21.4198 17.7509 21.5949C17.7543 21.6033 18.3208 22.9921 18.4105 23.1954C18.5773 23.5731 18.2765 24.0818 18.4621 24.3181C18.491 24.2507 18.6008 23.5729 18.6025 23.4943C18.6068 23.2991 18.4414 22.8675 18.3764 22.665C18.229 22.3651 17.8025 21.2977 17.6473 21.0877ZM21.331 21.9635C21.8465 22.7148 22.4881 23.7072 23.4377 23.9356C23.996 24.0701 24.3584 23.5536 24.5486 23.1074C24.6301 22.8895 24.665 22.7397 24.6954 22.508C24.5338 22.6778 24.4005 22.8186 24.204 22.9388C23.2502 23.5228 22.1362 22.8205 21.4857 22.1023C21.4419 22.0538 21.3876 21.9967 21.331 21.9635ZM26.3457 18.6671C26.3898 19.9256 27.5685 20.8387 28.2936 21.7587C28.4951 22.0143 28.6961 22.2992 28.8928 22.561C29.1667 22.7964 29.933 23.1088 30.2687 23.2397C30.3068 23.2995 30.4014 23.4827 30.438 23.5064C30.4048 23.4124 30.3637 23.2847 30.3202 23.1988C30.1025 23.0879 29.1255 22.5865 29.0261 22.4473C28.6427 21.9108 28.1715 21.3488 27.8317 20.7866C27.3965 20.0668 27.1314 19.1234 26.3457 18.6671ZM22.6695 20.3441C23.1071 21.036 23.3589 21.4709 24.1295 21.8035C22.9245 22.2847 21.846 21.5822 21.0222 20.748C21.5504 21.6677 23.0936 23.6421 24.3202 22.5095C24.6303 22.2232 24.7824 21.8871 24.7872 21.4667C23.9414 21.7854 23.1132 20.9428 22.6909 20.2961L22.6695 20.3441ZM25.6349 19.9603C26.0173 20.9455 26.6227 21.325 27.4182 21.954C27.5365 22.0474 27.8303 22.3343 27.9452 22.3793C27.6391 22.0103 27.2999 21.5878 26.9492 21.2648C26.6804 21.0172 26.383 20.8265 26.1173 20.5605C26.012 20.4549 25.6753 19.9866 25.6349 19.9603ZM21.5407 18.8769C21.1281 19.2314 20.9568 19.4012 21.071 19.9819C21.3275 20.2808 21.6349 20.6529 21.9337 20.9046C22.0401 20.9882 22.1493 21.0776 22.2612 21.1529C21.9544 20.7021 21.7906 20.3184 21.6815 19.7775C21.6594 19.6679 21.5666 18.9091 21.5407 18.8769ZM21.0524 10.7729C20.9765 10.7452 20.7606 10.7068 20.6895 10.7477L20.6869 10.785C20.7353 10.8412 20.769 10.8654 20.8261 10.9111C20.7374 10.8777 20.6302 10.8374 20.5371 10.8238C20.1583 10.7682 19.5709 11.0043 19.2716 11.2405C20.1026 10.8931 21.024 10.9056 21.5621 11.7306C21.6078 11.8007 21.6507 11.8725 21.6937 11.9443C21.3797 11.6068 21.1001 11.4382 20.6613 11.3127C21.9556 12.5213 22.4976 15.5996 23.1281 17.2487C23.2418 17.5459 23.3819 17.9548 23.5314 18.2265C23.2389 16.5774 22.9679 14.9653 22.473 13.359C22.2937 12.7771 22.1007 12.39 21.9149 11.8665C22.0461 12.0535 22.2072 12.3631 22.3094 12.5683C23.2292 14.4162 23.431 16.5346 24.2273 18.4181C24.3088 18.611 24.4054 18.7903 24.528 18.9606C24.5817 19.0352 24.6659 19.0952 24.6986 19.1543C24.3726 19.6157 23.807 18.5521 23.6721 18.3799L23.6588 18.3632C23.9183 19.0458 24.2842 19.5173 24.6373 20.142C24.6721 20.2037 24.6588 20.2312 24.6413 20.2861C24.5412 20.3672 24.2996 20.2992 24.2087 20.229C23.3308 19.5511 22.934 18.4069 22.5422 17.4076C22.4443 17.158 22.3607 16.9091 22.2921 16.6502C22.2718 16.573 22.2375 16.5228 22.2242 16.44L22.2109 16.4489C22.2237 16.628 22.2811 16.8092 22.314 16.9871C22.4396 17.666 22.614 18.3419 22.8191 19.0013C23.0221 19.6113 23.2988 20.3101 23.7634 20.7745C24.2135 21.2245 24.5533 21.2417 24.8212 20.6398C25.1342 19.9369 24.8797 19.4549 25.0731 18.7499C25.0879 18.6958 25.0786 18.4877 25.077 18.422C25.0577 18.4278 25.0382 18.4332 25.0187 18.4383C24.9313 18.4613 24.8899 18.4647 24.8047 18.4155C24.5555 18.2717 24.1925 17.3907 24.1261 17.1218C24.3632 17.5089 24.7692 18.675 25.2414 17.7699C25.6891 16.9117 25.5736 16.3233 25.2957 15.431C25.2506 15.9113 25.2039 16.3515 25.0448 16.8169C24.9909 16.9744 24.7831 17.1982 24.7648 17.2991L24.7343 17.3226C24.2131 16.9883 23.4989 14.4651 23.2012 13.7721C22.7367 12.6912 22.2999 11.2276 21.0524 10.7729ZM22.5418 20.0787C22.5462 20.1381 22.6378 20.2907 22.6695 20.3441L22.6909 20.2961L22.588 20.1139L22.5903 20.1158L22.5819 20.1033L22.588 20.1139L22.5418 20.0787ZM20.027 11.4026C19.6225 11.3633 19.1898 11.5408 18.885 11.799C18.4993 12.1258 18.1819 12.6799 18.0414 13.1644C18.3758 12.5526 18.8073 11.9913 19.5039 11.7793C19.6262 11.7421 19.9717 11.6927 20.0751 11.7691C19.9439 11.8399 19.8357 11.8854 19.7429 12.0023C19.3348 12.5171 19.5124 13.6811 19.591 14.3366C19.4743 14.0724 19.3382 13.6039 19.2483 13.3134C19.1776 14.1964 19.2354 14.9805 19.2115 15.8463C19.8233 16.1932 20.042 16.0823 20.1672 16.8686C20.4773 17.155 20.805 17.188 21.151 17.5847C21.1448 16.6103 21.0717 15.6298 21.0477 14.6551C21.0456 14.5675 21.0379 14.4773 21.0397 14.3901C21.0143 14.2595 21.0023 13.8415 21.0011 13.6944C21.0393 13.8478 21.0577 13.9607 21.0776 14.1169C21.1068 14.2476 21.1302 14.3831 21.1492 14.5179C21.3144 15.6904 21.392 16.9021 21.4026 18.0838C21.405 18.3521 21.0022 18.6991 20.8358 18.8708C20.7687 18.941 20.7257 19.0132 20.6664 19.0805C20.8762 18.3474 21.4586 18.1385 20.6055 17.5095C20.6049 17.786 20.5704 19.4193 20.6695 19.514C20.739 19.4601 20.7442 19.2924 20.8208 19.1919C21.1308 18.7854 21.6792 18.5547 21.7493 17.9926C21.8001 17.5853 21.7436 17.1352 21.7214 16.726C21.6537 15.4727 21.4861 12.7496 20.7207 11.7905C20.542 11.5665 20.3144 11.4306 20.027 11.4026ZM25.5247 17.8442C25.6924 18.3613 25.7563 18.4899 25.7685 19.0449L26.0406 19.3244L26.089 19.3712L26.1027 19.3542C26.0356 19.0337 26.064 18.7888 26.0674 18.4764C26.07 18.2423 25.8928 17.4018 25.7336 17.2613L25.5247 17.8442ZM22.7857 12.3736C23.0136 12.9384 24.1959 15.7008 24.6668 15.9223C24.7164 15.9457 24.7607 15.9473 24.8143 15.9424C25.1831 15.784 25.0874 14.6328 25.0187 14.2943C24.8763 13.722 24.6557 13.3006 24.259 12.8551C24.429 13.2417 24.5654 13.7405 24.579 14.1635C24.5462 14.2321 24.5236 14.3006 24.4643 14.3433C24.094 14.4038 23.2307 12.9057 22.9864 12.6144C22.923 12.5387 22.8743 12.4333 22.7857 12.3736ZM18.5912 13.0877C17.9522 13.9439 17.5869 14.7266 17.2732 15.7487C17.6155 15.6522 17.9576 15.6684 18.3076 15.7076C18.4976 15.7422 18.6508 15.7833 18.8373 15.8336C18.4751 15.6472 18.1685 15.5463 17.7655 15.4873C17.9169 14.8609 18.1156 14.2468 18.3598 13.6505C18.388 13.5808 18.5959 13.1262 18.5912 13.0877ZM23.5739 12.2349C23.5425 12.301 23.519 12.3754 23.5073 12.4636C23.4497 12.6862 23.5503 12.8709 23.5791 12.9914C23.6942 13.4736 23.9545 13.5833 24.2786 13.9747C24.2767 13.5955 24.1358 13.1372 23.9759 12.7904C23.9127 12.6535 23.6092 12.4089 23.5739 12.2349ZM23.9397 10.0126C23.7152 10.6221 23.8112 11.0037 24.2642 11.4821C24.2688 11.3854 23.9683 10.8903 23.9125 10.7284C23.8193 10.4586 23.9538 10.1921 23.9397 10.0126ZM23.2533 9.19778C23.0037 9.60914 22.7466 10.0287 22.3583 10.3317C22.3022 10.3754 22.0887 10.4978 22.0878 10.54C22.6204 10.2762 23.0019 9.85 23.2483 9.28311C23.2576 9.2616 23.2559 9.22237 23.2533 9.19778ZM24.2589 7.41632C23.7691 7.736 23.5337 8.05753 23.3998 8.64474C23.3724 8.76492 23.3381 8.99746 23.3552 9.11245L23.3757 9.13414C23.4834 8.40195 23.6135 7.87086 24.2792 7.44495L24.2589 7.41632Z" fill="#100907"/>
<path d="M29.7853 24.1546C29.8792 24.1232 30.0238 24.1546 30.0238 24.1546C30.5939 24.3468 30.0704 25.6014 30.0704 25.7811C30.0704 25.9476 30.2663 26.3284 30.2663 26.3284H29.8559H29.4082C29.4082 26.3284 29.5948 25.9476 29.5948 25.7811C29.5948 25.6014 29.1483 24.3319 29.7853 24.1546Z" fill="#100907"/>
<path d="M31.0172 26.6191H28.678C28.6477 26.6191 28.623 26.6438 28.623 26.6741V27.3806C28.623 27.4109 28.6477 27.4355 28.678 27.4355H31.0172C31.0475 27.4355 31.0721 27.4109 31.0721 27.3806V26.6741C31.0721 26.6438 31.0475 26.6191 31.0172 26.6191Z" fill="#100907"/>
<path d="M31.0172 27.5352H28.678C28.6477 27.5352 28.623 27.5598 28.623 27.5901V27.6435C28.623 27.6739 28.6477 27.6985 28.678 27.6985H31.0172C31.0475 27.6985 31.0721 27.6739 31.0721 27.6435V27.5901C31.0721 27.5598 31.0475 27.5352 31.0172 27.5352Z" fill="#100907"/>
</svg>
