<svg width="361" height="100" viewBox="0 0 361 100" fill="none" xmlns="http://www.w3.org/2000/svg">
<g clip-path="url(#clip0_890_67)">
<rect width="100" height="100" fill="#100907"/>
<rect width="100" height="0.338982" fill="#E9DDC4" fill-opacity="0.05"/>
<rect y="2.03516" width="100" height="0.338982" fill="#E9DDC4" fill-opacity="0.05"/>
<rect y="4.07031" width="100" height="0.338982" fill="#E9DDC4" fill-opacity="0.05"/>
<rect y="6.10156" width="100" height="0.338982" fill="#E9DDC4" fill-opacity="0.05"/>
<rect y="8.13477" width="100" height="0.338982" fill="#E9DDC4" fill-opacity="0.05"/>
<rect y="10.166" width="100" height="0.338982" fill="#E9DDC4" fill-opacity="0.05"/>
<rect y="12.2012" width="100" height="0.338982" fill="#E9DDC4" fill-opacity="0.05"/>
<rect y="14.2402" width="100" height="0.338982" fill="#E9DDC4" fill-opacity="0.05"/>
<rect y="16.2715" width="100" height="0.338982" fill="#E9DDC4" fill-opacity="0.05"/>
<rect y="18.3027" width="100" height="0.338982" fill="#E9DDC4" fill-opacity="0.05"/>
<rect y="20.3379" width="100" height="0.338982" fill="#E9DDC4" fill-opacity="0.05"/>
<rect y="22.373" width="100" height="0.338982" fill="#E9DDC4" fill-opacity="0.05"/>
<rect y="24.4082" width="100" height="0.338982" fill="#E9DDC4" fill-opacity="0.05"/>
<rect y="26.4414" width="100" height="0.338982" fill="#E9DDC4" fill-opacity="0.05"/>
<rect y="28.4746" width="100" height="0.338982" fill="#E9DDC4" fill-opacity="0.05"/>
<rect y="30.5078" width="100" height="0.338982" fill="#E9DDC4" fill-opacity="0.05"/>
<rect y="32.543" width="100" height="0.338982" fill="#E9DDC4" fill-opacity="0.05"/>
<rect y="34.5762" width="100" height="0.338982" fill="#E9DDC4" fill-opacity="0.05"/>
<rect y="36.6113" width="100" height="0.338982" fill="#E9DDC4" fill-opacity="0.05"/>
<rect y="38.6465" width="100" height="0.338982" fill="#E9DDC4" fill-opacity="0.05"/>
<rect y="40.6797" width="100" height="0.338982" fill="#E9DDC4" fill-opacity="0.05"/>
<rect y="42.709" width="100" height="0.338982" fill="#E9DDC4" fill-opacity="0.05"/>
<rect y="44.7441" width="100" height="0.338982" fill="#E9DDC4" fill-opacity="0.05"/>
<rect y="46.7793" width="100" height="0.338982" fill="#E9DDC4" fill-opacity="0.05"/>
<rect y="48.8145" width="100" height="0.338982" fill="#E9DDC4" fill-opacity="0.05"/>
<rect y="50.8477" width="100" height="0.338982" fill="#E9DDC4" fill-opacity="0.05"/>
<rect y="52.8789" width="100" height="0.338982" fill="#E9DDC4" fill-opacity="0.05"/>
<rect y="54.916" width="100" height="0.338982" fill="#E9DDC4" fill-opacity="0.05"/>
<rect y="56.9492" width="100" height="0.338982" fill="#E9DDC4" fill-opacity="0.05"/>
<rect y="58.9824" width="100" height="0.338982" fill="#E9DDC4" fill-opacity="0.05"/>
<rect y="61.0176" width="100" height="0.338982" fill="#E9DDC4" fill-opacity="0.05"/>
<rect y="63.0527" width="100" height="0.338982" fill="#E9DDC4" fill-opacity="0.05"/>
<rect y="65.084" width="100" height="0.338982" fill="#E9DDC4" fill-opacity="0.05"/>
<rect y="67.1191" width="100" height="0.338982" fill="#E9DDC4" fill-opacity="0.05"/>
<rect y="69.1504" width="100" height="0.338982" fill="#E9DDC4" fill-opacity="0.05"/>
<rect y="71.1836" width="100" height="0.338982" fill="#E9DDC4" fill-opacity="0.05"/>
<rect y="73.2227" width="100" height="0.338982" fill="#E9DDC4" fill-opacity="0.05"/>
<rect y="75.2539" width="100" height="0.338982" fill="#E9DDC4" fill-opacity="0.05"/>
<rect y="77.2852" width="100" height="0.338982" fill="#E9DDC4" fill-opacity="0.05"/>
<rect y="79.3203" width="100" height="0.338982" fill="#E9DDC4" fill-opacity="0.05"/>
<rect y="81.3555" width="100" height="0.338982" fill="#E9DDC4" fill-opacity="0.05"/>
<rect y="83.3906" width="100" height="0.338982" fill="#E9DDC4" fill-opacity="0.05"/>
<rect y="85.4238" width="100" height="0.338982" fill="#E9DDC4" fill-opacity="0.05"/>
<rect y="87.459" width="100" height="0.338982" fill="#E9DDC4" fill-opacity="0.05"/>
<rect y="89.4902" width="100" height="0.338982" fill="#E9DDC4" fill-opacity="0.05"/>
<rect y="91.5254" width="100" height="0.338982" fill="#E9DDC4" fill-opacity="0.05"/>
<rect y="93.5566" width="100" height="0.338982" fill="#E9DDC4" fill-opacity="0.05"/>
<rect y="95.5938" width="100" height="0.338982" fill="#E9DDC4" fill-opacity="0.05"/>
<rect y="97.6289" width="100" height="0.338982" fill="#E9DDC4" fill-opacity="0.05"/>
<rect y="99.6602" width="100" height="0.338982" fill="#E9DDC4" fill-opacity="0.05"/>
<path d="M80.785 0.0440188C84.9991 -0.497937 89.4534 4.06459 87.3123 8.21403C86.8625 9.08566 86.8066 9.76989 85.9032 10.2557C85.7701 10.9152 85.3525 12.9856 84.8682 13.3399C84.4831 13.4046 84.1204 13.0714 83.7908 12.8402C83.6907 13.0081 83.4256 13.5634 83.3253 13.5663C82.5925 13.5863 83.0942 13.7413 82.7055 14.0611C81.7393 14.1656 82.2281 14.657 81.7747 15.1006C80.7636 16.0897 79.4085 14.6037 78.7281 13.9024C78.3635 14.686 77.827 15.1071 77.4192 15.6176C77.5719 15.7741 78.2864 16.5525 78.4275 16.6401C81.3161 18.4318 82.6881 21.7926 82.6634 25.1021C82.6525 26.5547 83.6098 27.8937 83.9858 29.2796C84.0472 29.4854 84.0234 30.3144 84.1007 30.4536C84.5302 31.2268 85.1507 34.228 85.4929 34.7464C86.1105 35.6819 87.5744 36.5357 88.2589 37.622C89.0562 38.8875 89.6373 39.9854 90.2957 41.3138C91.3955 43.3826 92.9777 45.5227 94.4319 47.3628C95.5429 48.3932 97.4834 48.871 98.5245 49.8838C98.6464 50.0036 99.4295 52.3872 99.5574 52.7099C99.4458 53.3923 99.0185 55.6554 98.4174 55.9423L98.2495 55.8822C97.9637 55.5716 97.9615 55.2292 98.0262 54.8355C98.1343 54.1761 98.1725 53.6001 98.157 52.9332C97.9718 52.7286 97.5156 52.2854 97.5099 52.2798C97.018 51.8886 96.3674 51.39 96.3674 51.39C93.1608 52.1395 95.3843 53.5682 94.9475 55.5999C94.8828 55.9003 94.58 56.0056 94.298 55.8667C94.1103 55.6306 93.6626 54.3086 93.4233 53.8944C93.3244 53.6598 93.2297 53.0276 93.0922 52.8311C92.111 51.4285 91.7985 51.0938 91.4301 49.3771C89.0753 46.8171 85.6399 45.0884 83.4865 42.2885C82.9937 41.6474 82.556 41.0082 82.107 40.3385L82.0998 40.4099C81.9363 42.1514 82.6758 42.6553 81.5884 44.2335C81.6038 44.5721 81.6336 44.9703 81.588 45.3036C81.5372 45.6746 81.3151 46.3609 81.3213 46.7104C81.3458 48.1144 81.3451 49.5654 81.2754 50.9701C81.0127 55.7359 80.4215 60.4784 79.506 65.1632C78.9967 67.8165 78.3703 70.4467 77.6286 73.0452C77.4054 73.8435 76.7895 75.3966 76.6641 76.0508C76.4405 77.2173 76.2953 78.9111 76.1316 80.1384C75.5417 84.5589 74.2785 90.2237 75.4679 94.564C75.9874 95.8716 77.2918 96.3769 78.3903 97.1646C79.1346 97.6979 80.1627 98.5665 80.9948 98.904C81.9797 99.3022 83.1904 99.4779 84.1698 99.9369C84.5705 100.12 84.6062 100.943 84.3616 101.236C83.6185 102.127 82.2393 101.708 81.2823 101.668C80.5195 101.693 79.1678 101.46 79.1561 101.458C79.1561 101.458 75.9318 100.652 73.9326 101.19C68.58 102.125 69.3866 99.162 69.9238 95.8663C69.9238 95.8663 70.1744 90.8694 69.9238 89.3427C67.6674 90.7969 66.265 91.4885 63.6105 91.7567C63.3211 94.0127 63.055 95.6768 64.7245 97.5342C65.6419 98.5555 67.4998 99.9935 67.5171 100.007L68.1238 100.601C68.1302 100.606 68.9294 101.159 68.8792 102.012C68.6283 103.267 66.9007 102.837 66.9007 102.837C66.3108 103.068 66.0636 102.995 65.4181 102.965C63.8103 102.888 62.0218 102.899 60.5898 102.068C59.8839 101.65 59.0239 101.383 58.4515 100.781C58.179 100.506 58.1687 100.176 58.211 99.798C58.36 98.4658 58.7699 95.9528 58.7731 95.9327C58.7731 95.9327 59.028 94.7333 59.0509 94.2799C59.0888 93.5283 59.0638 92.7967 58.9623 92.0486C58.5288 88.749 57.947 85.0911 58.3459 81.7774C58.435 81.0046 58.5688 80.2384 58.7462 79.4814C58.8692 78.9577 59.3642 77.2887 59.3225 76.8756C59.2151 75.8098 59.0835 73.7036 58.7776 72.7318C58.3905 71.7857 57.64 70.9705 57.6143 69.8902C57.432 62.2404 58.1408 54.5697 58.6044 46.9401C57.4682 44.9725 58.3266 44.0529 58.2196 42.0771C58.1742 41.2403 57.4198 39.5045 57.2909 38.5203C57.1242 37.247 56.7808 35.9413 56.8285 34.626C56.8576 33.8228 57.0186 33.0339 57.147 32.2499C57.3079 31.2667 57.4605 30.2823 57.605 29.2965C57.4508 29.1022 57.0237 28.5466 56.9341 28.3374C56.2611 26.7671 58.1285 23.3419 58.4898 21.7691C58.6699 20.6711 58.8573 19.6733 59.1821 18.6148C60.6417 13.8582 63.7244 11.1844 68.7042 10.7896C69.1803 10.7518 69.8116 10.9719 70.2703 11.1215C72.3681 10.4915 73.6219 9.46354 74.8381 7.66116C75.0782 7.30537 75.5675 6.49282 75.6508 6.11442C75.9743 4.64517 76.0779 3.48531 77.0482 2.20541C77.9734 0.984987 79.2586 0.258802 80.785 0.0440188ZM62.8081 92.4101C61.1802 93.2356 59.9834 97.4176 59.9834 97.4176L60.9442 98.9838L61.0636 100.765C61.0726 100.772 62.7986 102.139 62.8833 102.168C63.1066 102.145 63.0467 102.185 63.1722 102.051C63.1609 101.622 62.5962 101.189 62.5817 100.956C63.4633 100.954 63.3202 102.181 64.2437 102.271L64.3742 102.205C64.4053 101.698 63.7866 101.269 63.7205 100.855C64.0258 100.767 64.3384 101.145 64.5095 101.363V101.364C64.6949 101.747 64.8568 102.256 65.337 102.307C65.7475 101.988 65.1103 101.25 64.8894 100.967L64.7276 100.74L64.749 100.679C65.7969 100.923 65.611 101.774 66.2761 102.239C66.5233 102.292 66.4194 102.298 66.6719 102.191L66.7326 102.097C66.5749 101.606 66.1481 100.996 65.8074 100.608C66.5976 100.137 67.3707 102.977 68.3108 101.76C68.3264 101.626 68.3599 101.606 68.2511 101.495C67.017 100.238 65.681 99.5938 64.4926 98.2555C62.9107 96.4734 62.6241 95.3401 62.7639 93.0155C62.7763 92.8137 62.791 92.6119 62.8081 92.4101ZM74.335 88.6236C73.6846 90.3022 73.3626 91.2821 72.5711 93.553C72.4558 94.5566 72.4558 94.5566 72.5594 96.2875C72.8818 97.1575 72.9571 97.371 72.9594 97.3773L73.0094 97.4922C73.7956 99.1164 74.5871 98.6245 76.0484 99.0609C77.1401 99.3867 78.2328 100.206 79.3624 100.474C80.0524 100.656 81.3524 100.593 81.3575 100.592C81.3575 100.592 83.3027 101.346 83.8039 100.747C83.8041 100.746 83.8354 100.567 83.7487 100.415C83.7359 100.41 82.4453 99.9811 81.8303 99.8182C80.4061 99.4401 79.534 98.7022 78.3571 97.8894C77.6046 97.3699 76.718 96.9105 75.9942 96.3352C75.7542 96.1483 75.168 95.5708 75.0435 95.2917C74.1981 93.3989 74.3365 91.2712 74.3512 89.2498C74.3526 89.0498 74.3717 88.8176 74.335 88.6236ZM75.3623 78.1142C74.5309 79.5808 73.456 81.2533 72.3875 82.5672C69.784 85.7689 66.8251 89.0911 62.7525 90.3418C62.6507 90.3736 62.3131 90.4669 62.2973 90.569C66.6181 90.6803 70.831 87.867 72.8413 84.2002C73.3974 83.1857 75.4628 79.1235 75.3623 78.1142ZM80.1624 51.2472C78.662 53.705 76.4252 56.4628 73.4822 57.2219C73.187 57.2983 72.6927 57.3601 72.3789 57.4039C73.8312 56.7236 75.0754 55.8635 76.1412 54.651C74.0037 54.9624 71.5199 53.8697 70.0401 52.3883C69.8294 52.1773 69.1226 51.3808 68.922 51.2709C69.5266 53.0689 69.1816 53.2382 69.4193 54.8104C72.0105 55.6992 70.1872 59.8617 69.782 61.7941C69.5475 62.8864 69.4046 63.9971 69.3547 65.1134C69.3285 66.0248 69.3564 66.9376 69.4386 67.8458C69.5878 69.593 70.3963 73.6566 68.1776 74.3443C67.0072 75.9041 65.7017 76.6667 64.0025 77.5611C65.9596 77.2123 67.2477 76.7738 68.9379 75.684C69.1905 75.5214 69.6995 75.1002 69.9262 75.204C69.9943 75.773 68.8779 77.7548 68.5541 78.3552C67.5764 80.1681 66.8576 81.9541 66.1487 83.8868C67.0503 83.1871 67.7652 82.5107 68.5858 81.7142C66.8907 84.232 65.1557 86.1651 62.9641 88.2741C71.0242 86.8768 75.0244 77.6831 77.2553 70.7284C77.6497 69.4986 78.0872 67.9405 78.3258 66.6796C79.053 63.6511 79.5881 60.2466 79.9512 57.1502C80.0551 56.2642 80.2464 54.851 80.2763 53.9941C79.1661 57.5626 78.3777 61.3336 77.2017 64.8968C76.9645 65.6152 76.2549 66.4881 75.9373 67.2023C74.4659 69.7174 72.6939 73.3537 70.8742 75.5659C73.3164 69.1961 76.9974 63.3161 78.7661 56.6968C79.2213 54.9928 79.834 52.9537 80.1624 51.2472ZM70.0967 56.0625C69.8319 55.5098 69.513 55.2832 68.8757 55.5826C68.1513 55.9222 68.0813 57.6326 68.9251 57.8538C69.3431 57.963 69.5239 57.2509 69.5836 56.906C69.5311 56.6862 69.5276 56.5494 69.3565 56.412C69.1534 56.3876 69.2425 56.3632 69.0797 56.4862C69.0051 56.6763 69.0052 56.6823 69.0593 56.8851C69.1503 57.0018 69.1925 57.0336 69.2847 57.0813L69.3972 57.1382C69.31 57.2947 69.2965 57.2947 69.1311 57.3813C68.4335 57.3933 68.507 56.2657 68.8847 56.0469C69.7961 55.5186 70.1851 56.666 69.9697 57.4032C69.5584 58.8125 68.5458 58.3764 67.4929 58.1121C67.8008 59.5433 66.7438 59.8868 65.8902 58.7676C64.5613 59.0161 63.6595 57.9987 62.432 57.6905C62.2334 57.6407 61.9272 56.7092 61.4719 56.9728C61.2799 58.9737 60.68 60.5346 60.6709 62.7977C60.6618 65.0586 61.3019 67.2157 61.0077 69.3413C62.0356 69.5693 67.7562 70.7287 68.2825 71.0751C68.5233 71.2334 68.6649 71.5719 68.726 71.8455C68.8048 72.1988 68.7018 72.6059 68.4913 72.8989C68.3585 73.0837 68.1472 73.2933 67.9064 73.3159C67.7562 73.3297 67.6221 73.2696 67.5212 73.1593C67.3648 72.9883 67.2842 72.6886 67.3086 72.4607C67.3355 72.2119 67.6441 71.8857 67.6441 71.8857C67.6471 71.884 67.7923 71.8165 67.974 71.9062C68.0732 72.0384 67.9062 72.2052 67.7258 72.4847C67.7258 72.4847 67.6883 72.6826 67.7707 72.7434C67.8272 72.7851 67.9479 72.7685 67.9515 72.7682C68.4761 72.3911 68.5264 71.7359 67.916 71.3949C67.536 71.3949 67.53 71.4104 67.331 71.6769C66.3208 73.0268 68.0176 74.9033 68.8485 73.0212C69.3208 71.7412 69.1296 70.1725 68.9486 68.8452C68.5173 65.6856 68.8074 62.6143 69.7202 59.5656C70.0413 58.4924 70.5352 57.1608 70.0967 56.0625ZM60.1439 69.6658C59.7097 70.0149 59.5726 70.2803 59.4951 70.839C59.4315 71.2988 59.6129 71.8992 60.0949 72.0783C60.8827 72.2925 61.7116 72.4508 62.5158 72.63C63.9652 72.9597 65.4119 73.3011 66.8552 73.6559C66.471 72.6706 66.4411 72.1282 67.0867 71.2493C65.627 70.9288 64.1692 70.5976 62.7139 70.2577C61.9418 70.0764 60.9063 69.7923 60.1439 69.6658ZM61.4788 28.1142C61.3498 29.0851 61.2616 30.1637 60.968 31.099C60.6304 32.1744 59.7112 33.1911 60.1246 34.402C60.4743 35.4264 61.0535 36.3463 61.4405 37.3555C62.1206 39.0041 62.378 40.4735 62.7764 42.1722C61.8062 40.4904 60.7998 38.8203 59.8488 37.1318C60.3034 38.5189 60.7345 39.8699 61.2493 41.234C62.1542 43.6324 63.9589 47.4235 64.0626 49.9538C63.5626 50.7684 63.2646 51.3705 63.1787 52.3505C63.1226 52.9908 62.8741 53.7421 62.912 54.381C62.9985 54.5553 63.0153 54.633 63.1718 54.7323C63.7101 54.6768 63.7917 52.8922 63.8352 52.4579C64.0176 53.2848 63.8383 54.334 64.163 54.7888C64.6103 55.0518 64.8583 54.6528 65.1486 54.3323C65.3405 54.8397 65.3559 54.9048 65.8167 55.1747C65.8941 55.9946 65.9665 56.8201 66.0535 57.6379C66.642 58.0107 66.744 58.3637 67.2037 58.8415C66.608 57.1848 66.2409 55.0829 67.0315 53.4156C67.0749 53.3219 67.1225 53.2304 67.1737 53.1414C67.5364 53.6096 67.8226 53.9584 68.0899 54.4952C68.3168 54.5415 68.5608 54.5984 68.7884 54.6323C68.4711 53.8093 68.0401 52.6583 67.5485 51.936C67.0864 51.2578 66.0137 50.3927 65.6963 49.6828C65.5623 49.3834 65.2655 48.3717 65.159 48.0282C64.6995 46.5454 63.959 44.2402 63.869 42.6991C63.7721 41.0396 63.8928 39.7413 63.5622 38.0104C63.4422 37.3866 63.2911 36.7689 63.1097 36.16C62.8974 35.4649 62.6147 34.7915 62.5962 34.1014C62.85 33.3318 63.2626 32.6917 63.5887 31.9604C63.9319 31.1906 64.1772 30.3224 64.4056 29.5129C63.2314 28.7264 62.829 28.5297 61.4788 28.1142ZM64.8073 55.5327C64.6993 56.3713 64.747 56.9625 64.8135 57.8057C65.0042 57.9114 65.2093 58.0333 65.4088 58.1174C65.0993 57.3657 65.2933 56.2285 64.8073 55.5327ZM63.6201 55.6493C63.6646 56.2621 63.6211 57.358 64.1012 57.752C64.0703 57.2728 63.9193 55.9911 63.6201 55.6493ZM67.1809 54.8556C67.0533 55.9268 67.0294 56.5053 67.2682 57.5845C67.5239 57.6442 67.8013 57.7598 68.0037 57.675C67.994 57.5071 67.9819 57.494 67.9108 57.3378C67.7831 56.4349 67.9019 55.8313 68.6052 55.221C68.1444 55.0974 67.6447 54.9525 67.1809 54.8556ZM62.4992 55.3309C62.5079 55.9624 62.3721 56.8738 63.0051 57.1922C62.9486 56.8067 62.8374 55.5295 62.4992 55.3309ZM60.4503 53.7365C59.8318 54.192 59.4577 55.0853 59.9034 55.8229C60.1099 56.1649 60.8485 56.2416 61.2444 56.3091L61.6179 56.365L61.6783 56.3144C61.6115 55.4278 61.2581 54.9267 61.2596 53.8934C61.0482 53.8478 60.6515 53.7499 60.4503 53.7365ZM67.4877 45.0209C68.6916 48.2742 71.7275 55.3355 76.641 53.7199C76.8463 53.6524 77.1147 53.5103 77.2887 53.3792L77.9058 52.83C74.3495 53.2647 70.592 49.4774 68.6987 46.8426C68.3401 46.3436 67.8609 45.4276 67.4877 45.0209ZM58.7866 43.4716C58.9964 44.4459 59.0203 44.4964 59.1062 45.0368C59.1167 45.0626 60.8648 49.3481 61.1416 49.9754C61.6562 51.1408 60.7282 52.7106 61.3007 53.44C61.39 53.2318 61.7288 51.1405 61.7342 50.8977C61.7474 50.2955 61.2369 48.9636 61.0363 48.3388C60.5814 47.4133 59.2653 44.1197 58.7866 43.4716ZM70.1537 46.174C71.7444 48.4925 73.7241 51.5546 76.6544 52.2597C78.3771 52.6745 79.4955 51.0808 80.0824 49.704C80.3339 49.0315 80.4417 48.5692 80.5355 47.8543C80.0367 48.3784 79.6254 48.8127 79.0191 49.1838C76.0758 50.9857 72.6382 48.8187 70.6309 46.6023C70.4958 46.4528 70.3284 46.2765 70.1537 46.174ZM85.6278 36.0021C85.764 39.8854 89.4011 42.7034 91.6385 45.5421C92.2603 46.3309 92.8805 47.2101 93.4876 48.0179C94.333 48.7442 96.6975 49.7082 97.7332 50.1121C97.8509 50.2966 98.1428 50.862 98.2559 50.9352C98.1534 50.645 98.0266 50.251 97.8923 49.986C97.2205 49.6439 94.2057 48.0964 93.899 47.667C92.7159 46.0114 91.2617 44.2773 90.2132 42.5426C88.8704 40.3212 88.0523 37.4103 85.6278 36.0021ZM74.2839 41.1771C75.6343 43.3119 76.4113 44.6541 78.7892 45.6803C75.0708 47.1652 71.7427 44.9975 69.2008 42.4235C70.8307 45.2612 75.5925 51.3539 79.3776 47.8589C80.3345 46.9755 80.8039 45.9383 80.8188 44.641C78.2086 45.6245 75.6529 43.0246 74.3498 41.029L74.2839 41.1771ZM83.4343 39.9925C84.6144 43.0327 86.4825 44.2038 88.9374 46.1446C89.3023 46.433 90.209 47.3182 90.5635 47.4571C89.6191 46.3185 88.5722 45.0149 87.49 44.018C86.6607 43.2539 85.7428 42.6655 84.9231 41.8446C84.5981 41.5188 83.5591 40.0738 83.4343 39.9925ZM70.8007 36.6495C69.5275 37.7436 68.999 38.2673 69.3513 40.0593C70.1429 40.9816 71.0913 42.1298 72.0134 42.9065C72.3416 43.1645 72.6785 43.4405 73.0239 43.6727C72.0774 42.2818 71.5719 41.0976 71.2352 39.4285C71.167 39.0903 70.8805 36.7488 70.8007 36.6495ZM69.294 11.6423C69.0597 11.5569 68.3933 11.4383 68.1741 11.5646L68.1659 11.6796C68.3153 11.853 68.4195 11.9278 68.5955 12.0689C68.3219 11.9657 67.991 11.8415 67.7038 11.7993C66.535 11.6279 64.7222 12.3563 63.7986 13.0852C66.3631 12.0132 69.2063 12.0519 70.8666 14.5975C71.0078 14.8138 71.1401 15.0353 71.2728 15.2569C70.3038 14.2156 69.4409 13.6952 68.0872 13.3081C72.0811 17.0374 73.7533 26.5364 75.6991 31.6253C76.0498 32.5423 76.4821 33.8041 76.9436 34.6425C76.041 29.5538 75.2048 24.5791 73.6775 19.6225C73.1242 17.827 72.5286 16.6323 71.9555 15.0171C72.3603 15.594 72.8573 16.5493 73.1726 17.1826C76.011 22.8847 76.6337 29.4216 79.0909 35.2337C79.3425 35.8289 79.6404 36.3823 80.0188 36.9078C80.1846 37.1379 80.4444 37.323 80.5451 37.5054C79.5392 38.9292 77.7941 35.6473 77.3777 35.116L77.3367 35.0642C78.1374 37.1707 79.2665 38.6256 80.356 40.5533C80.4636 40.7438 80.4225 40.8286 80.3684 40.9979C80.0596 41.2481 79.3141 41.0385 79.0336 40.8219C76.3246 38.7299 75.1002 35.1992 73.8911 32.1156C73.5891 31.3453 73.3309 30.5775 73.1192 29.7783C73.0567 29.5402 72.9507 29.3854 72.9097 29.1298L72.8686 29.1571C72.9083 29.7099 73.0855 30.2692 73.1868 30.8181C73.5745 32.913 74.1125 34.9988 74.7456 37.0332C75.3719 38.9157 76.2259 41.0721 77.6594 42.5051C79.0485 43.8936 80.0969 43.9469 80.9237 42.0895C81.8894 39.9204 81.104 38.433 81.7009 36.2576C81.7467 36.0908 81.7178 35.4487 81.713 35.2458C81.6533 35.2636 81.5933 35.2803 81.5331 35.2961C81.2632 35.367 81.1354 35.3776 80.8726 35.2257C80.1037 34.7819 78.9835 32.0635 78.7785 31.2336C79.5101 32.4283 80.7631 36.0264 82.2203 33.2334C83.6017 30.5855 83.2455 28.7697 82.3876 26.0163C82.2485 27.4983 82.1045 28.8568 81.6136 30.2928C81.4474 30.7789 80.806 31.4693 80.7494 31.7809L80.6555 31.8534C79.047 30.8216 76.8432 23.0356 75.9245 20.8973C74.4913 17.5618 73.1434 13.0455 69.294 11.6423ZM73.8898 40.3579C73.9033 40.5413 74.1862 41.012 74.2839 41.1771L74.3498 41.029L74.0323 40.4668L74.0395 40.4724L74.0137 40.4339L74.0323 40.4668L73.8898 40.3579ZM66.1297 13.5856C64.8815 13.4641 63.5462 14.0119 62.6059 14.8086C61.4156 15.8171 60.4361 17.527 60.0027 19.022C61.0344 17.1341 62.366 15.4019 64.5157 14.7479C64.8928 14.6332 65.9589 14.4807 66.2782 14.7165C65.8734 14.9349 65.5393 15.0752 65.2532 15.436C63.9938 17.0246 64.5419 20.6163 64.7842 22.6391C64.4242 21.8239 64.0042 20.3783 63.7268 19.4817C63.5086 22.2066 63.687 24.626 63.6132 27.2977C65.5012 28.3682 66.1759 28.026 66.5625 30.4523C67.5191 31.3362 68.5305 31.438 69.5981 32.6619C69.5791 29.6553 69.3534 26.6296 69.2795 23.6219C69.2729 23.3517 69.2491 23.0733 69.2547 22.8044C69.1763 22.4013 69.1394 21.1113 69.1356 20.6575C69.2534 21.1308 69.3103 21.4791 69.3717 21.9613C69.4616 22.3647 69.5339 22.7827 69.5925 23.1985C70.1025 26.8167 70.3419 30.5556 70.3745 34.2022C70.3819 35.0301 69.139 36.101 68.6255 36.6307C68.4184 36.8474 68.2859 37.07 68.1027 37.2778C68.7503 35.0157 70.5474 34.3711 67.915 32.4301C67.9129 33.2832 67.8064 38.3231 68.1124 38.6154C68.3267 38.4493 68.3429 37.9316 68.5793 37.6216C69.5359 36.3671 71.2281 35.6554 71.4444 33.9209C71.6012 32.6638 71.4266 31.2749 71.3584 30.0122C71.1495 26.1448 70.6322 17.742 68.2704 14.7824C67.7189 14.0912 67.0166 13.672 66.1297 13.5856ZM83.0944 33.4629C83.6118 35.0586 83.8091 35.4554 83.8467 37.1679L84.6864 38.0305L84.8358 38.1747L84.8779 38.1224C84.6708 37.1333 84.7584 36.3777 84.7692 35.4137C84.7772 34.6913 84.2304 32.0978 83.7391 31.6643L83.0944 33.4629ZM74.6424 16.5818C75.3457 18.3247 78.994 26.8487 80.4471 27.5323C80.6002 27.6043 80.7369 27.6095 80.9023 27.5944C82.0402 27.1056 81.7451 23.553 81.5331 22.5086C81.0936 20.7427 80.4129 19.4423 79.1888 18.0675C79.7133 19.2604 80.1342 20.7998 80.1762 22.1048C80.0751 22.3167 80.0053 22.5282 79.8221 22.6598C78.6797 22.8465 76.0155 18.2238 75.2619 17.3248C75.0661 17.0911 74.9158 16.766 74.6424 16.5818ZM61.6993 18.7853C59.7274 21.4273 58.6001 23.8425 57.6322 26.9967C58.6883 26.6989 59.744 26.7488 60.8241 26.8697C61.4104 26.9765 61.883 27.1033 62.4585 27.2587C61.3408 26.6835 60.3949 26.372 59.1514 26.1899C59.6183 24.2569 60.2314 22.362 60.9853 20.5219C61.0722 20.3068 61.7136 18.9041 61.6993 18.7853ZM77.0747 16.1539C76.9777 16.3577 76.9054 16.5874 76.8691 16.8596C76.6914 17.5464 77.0018 18.1164 77.0906 18.4881C77.4459 19.976 78.2493 20.3147 79.2492 21.5223C79.2433 20.3524 78.8085 18.938 78.3151 17.868C78.1202 17.4456 77.1836 16.6905 77.0747 16.1539ZM78.2036 9.29628C77.5108 11.177 77.8068 12.3546 79.2048 13.8306C79.2191 13.5323 78.2918 12.0045 78.1194 11.505C77.8321 10.6725 78.247 9.84997 78.2036 9.29628ZM76.0853 6.78186C75.3153 8.05123 74.5219 9.34583 73.3235 10.2809C73.1505 10.4159 72.4916 10.7934 72.489 10.9238C74.1325 10.1097 75.3095 8.79447 76.0698 7.04517C76.0985 6.9788 76.0933 6.85773 76.0853 6.78186ZM79.1885 1.28467C77.677 2.27113 76.9506 3.26331 76.5374 5.07532C76.4529 5.44616 76.3471 6.16371 76.3997 6.51855L76.4632 6.58548C76.7954 4.3261 77.1967 2.68728 79.251 1.37302L79.1885 1.28467Z" fill="#E9DDC4"/>
<path d="M96.2358 52.9317C96.5256 52.8349 96.9719 52.9317 96.9719 52.9317C98.731 53.5248 97.1158 57.3962 97.1158 57.9508C97.1158 58.4646 97.7202 59.6398 97.7202 59.6398H96.4538H95.0723C95.0723 59.6398 95.648 58.4646 95.648 57.9508C95.648 57.3962 94.2703 53.4788 96.2358 52.9317Z" fill="#E9DDC4"/>
<path d="M100.044 60.5449H92.8259C92.7322 60.5449 92.6562 60.6209 92.6562 60.7146V62.8945C92.6562 62.9882 92.7322 63.0642 92.8259 63.0642H100.044C100.138 63.0642 100.214 62.9882 100.214 62.8945V60.7146C100.214 60.6209 100.138 60.5449 100.044 60.5449Z" fill="#E9DDC4"/>
<path d="M100.044 63.3652H92.8259C92.7322 63.3652 92.6562 63.4412 92.6562 63.5349V63.6996C92.6562 63.7932 92.7322 63.8692 92.8259 63.8692H100.044C100.138 63.8692 100.214 63.7932 100.214 63.6996V63.5349C100.214 63.4412 100.138 63.3652 100.044 63.3652Z" fill="#E9DDC4"/>
</g>
<path d="M142.72 86.88C126.352 86.88 119.224 78.256 119.224 68.136V66.816H125.472V67.784C125.472 75.968 129.784 81.072 142.896 81.072C152.664 81.072 157.24 77.816 157.24 71.04C157.24 64.44 154.248 61.976 145.36 60.04L135.152 57.752C125.912 55.816 119.576 51.592 119.576 42.088C119.576 33.552 126.616 26.16 140.608 26.16C155.92 26.16 162.608 35.488 162.608 45.08V46.224H156.36V45.256C156.36 37.16 152.136 31.968 140.52 31.968C130.752 31.968 125.912 35.224 125.912 41.648C125.912 48.336 129.168 50.272 137.792 52.296L148 54.672C157.768 56.872 163.576 61.448 163.576 70.688C163.576 79.664 156.624 86.88 142.72 86.88ZM186.987 86.88C174.227 86.88 165.867 77.464 165.867 64.264C165.867 51.064 174.227 41.648 186.987 41.648C199.659 41.648 207.755 51.064 207.755 64.264C207.755 77.464 199.659 86.88 186.987 86.88ZM186.987 81.248C197.459 81.248 201.595 75.088 201.595 64.264C201.595 53.44 197.459 47.368 186.987 47.368C176.339 47.368 172.115 53.44 172.115 64.264C172.115 75.088 176.339 81.248 186.987 81.248ZM227.738 86.088C219.73 86.088 215.066 82.92 215.066 73.68V47.984H207.762V42.528H215.154L216.65 31.44H221.402V42.528H235.13V47.984H221.402V74.032C221.402 79.136 223.778 80.28 229.41 80.28H235.13V85.384C233.634 85.648 230.906 86.088 227.738 86.088ZM254.522 86.88C241.146 86.88 234.194 77.464 234.194 64.264C234.194 51.064 242.026 41.648 254.434 41.648C264.906 41.648 273.53 47.984 273.53 60.832C273.53 62.856 273.354 64.792 273.09 66.024H240.178C240.442 75.616 244.226 81.248 254.61 81.248C263.41 81.248 266.93 77.288 266.93 72.008V71.48H273.178V72.096C273.178 80.456 265.61 86.88 254.522 86.88ZM254.258 47.104C244.578 47.104 240.706 52.648 240.178 61.448H267.546C267.898 51.152 262.794 47.104 254.258 47.104ZM284.489 86H278.153V42H283.873V49.304H284.313C285.721 45.256 289.945 41.648 296.369 41.648C305.345 41.648 308.777 48.072 308.777 55.552V58.016H302.441V56.52C302.441 49.744 300.329 47.104 294.081 47.104C287.305 47.104 284.489 50.184 284.489 57.224V86ZM317.14 36.72H310.892V27.04H317.14V36.72ZM317.14 86H310.892V42H317.14V86ZM340.533 86.88C328.653 86.88 322.141 81.864 322.141 71.744V71.568H328.301V72.624C328.301 78.608 330.765 81.512 340.621 81.512C348.717 81.512 350.829 79.224 350.829 74.824C350.829 70.424 348.101 68.84 341.501 67.608L334.285 66.376C327.245 65.056 322.141 61.8 322.141 54.144C322.141 46.664 328.477 41.648 338.773 41.648C348.717 41.648 356.021 46.752 356.021 56.52V56.96H349.949V56.256C349.949 51.064 347.925 47.104 338.597 47.104C330.677 47.104 328.213 49.656 328.213 54.056C328.213 58.456 330.413 59.952 336.925 61.184L344.317 62.592C351.885 64 356.901 67.344 356.901 74.56C356.901 82.304 350.565 86.88 340.533 86.88Z" fill="#100907"/>
<defs>
<clipPath id="clip0_890_67">
<rect width="100" height="100" fill="white"/>
</clipPath>
</defs>
</svg>
