<svg xmlns="http://www.w3.org/2000/svg" width="1200" height="675" viewBox="0 0 1200 675" role="img" aria-label="Actors split between preparation and authority">
<path d="M600 0V675" fill="none" stroke="#E9DDC4" stroke-opacity="0.108" stroke-width="1200" stroke-dasharray="1 5"/><rect x="64" y="64" width="420" height="547" rx="3" fill="none" stroke="#E9DDC4" stroke-opacity="0.45" stroke-width="2" stroke-dasharray="9 7"/><rect x="716" y="64" width="420" height="547" rx="3" fill="none" stroke="#E9DDC4" stroke-opacity="0.45" stroke-width="2" stroke-dasharray="9 7"/><text x="92" y="89" fill="#FFF4E1" font-family="Geist Mono, ui-monospace, SF Mono, Menlo, Consolas, monospace" font-size="24" font-weight="500" text-anchor="start" dominant-baseline="central">&gt; preparation</text><text x="744" y="89" fill="#FFF4E1" font-family="Geist Mono, ui-monospace, SF Mono, Menlo, Consolas, monospace" font-size="24" font-weight="500" text-anchor="start" dominant-baseline="central">&gt; authority</text><rect x="124" y="120" width="300" height="96" rx="3" fill="#FFF4E1"/><text x="144" y="168" fill="#100907" font-family="Geist Mono, ui-monospace, SF Mono, Menlo, Consolas, monospace" font-size="24" font-weight="500" text-anchor="start" dominant-baseline="central">client</text><g transform="translate(370 151) scale(1.4167)"><path d="M16 6C16 8.209 14.209 10 12 10C9.791 10 8 8.209 8 6C8 3.791 9.791 2 12 2C14.209 2 16 3.791 16 6Z" fill="none" stroke="#100907" stroke-width="2" stroke-linecap="square" stroke-miterlimit="10"/><path d="M21 21V16.31C15.403 13.2 8.597 13.2 3 16.31V21H21Z" fill="none" stroke="#100907" stroke-width="2" stroke-linecap="square" stroke-miterlimit="10"/></g><rect x="124" y="238" width="300" height="96" rx="3" fill="#FFF4E1"/><text x="144" y="286" fill="#100907" font-family="Geist Mono, ui-monospace, SF Mono, Menlo, Consolas, monospace" font-size="24" font-weight="500" text-anchor="start" dominant-baseline="central">partner system</text><g transform="translate(370 269) scale(1.4167)"><path d="M19 9L19 17" fill="none" stroke="#100907" stroke-width="2" stroke-linecap="square" stroke-miterlimit="10"/><path d="M5 9L5 17" fill="none" stroke="#100907" stroke-width="2" stroke-linecap="square" stroke-miterlimit="10"/><path d="M9.5 9.00009L9.5 17.0001" fill="none" stroke="#100907" stroke-width="2" stroke-linecap="square" stroke-miterlimit="10"/><path d="M14.5 9.00006L14.5 17.0001" fill="none" stroke="#100907" stroke-width="2" stroke-linecap="square" stroke-miterlimit="10"/><path d="M12 1.5L3 6.09091V9H21V6.09091L12 1.5Z" fill="none" stroke="#100907" stroke-width="2" stroke-linecap="square" stroke-miterlimit="10"/><path d="M21 21H3V17H21V21Z" fill="none" stroke="#100907" stroke-width="2" stroke-linecap="square" stroke-miterlimit="10"/></g><rect x="124" y="356" width="300" height="96" rx="3" fill="#FFF4E1"/><text x="144" y="404" fill="#100907" font-family="Geist Mono, ui-monospace, SF Mono, Menlo, Consolas, monospace" font-size="24" font-weight="500" text-anchor="start" dominant-baseline="central">agent runtime</text><g transform="translate(370 387) scale(1.4167)"><path d="M21 3H3V21H21V3Z" fill="none" stroke="#100907" stroke-width="2" stroke-linecap="square" stroke-miterlimit="10"/><path d="M7.5 15.5L10.5 12.5L7.5 9.5" fill="none" stroke="#100907" stroke-width="2" stroke-linecap="square" stroke-miterlimit="10"/><path d="M13 16H17" fill="none" stroke="#100907" stroke-width="2" stroke-linecap="square" stroke-miterlimit="10"/></g><rect x="124" y="474" width="300" height="96" rx="3" fill="#FFF4E1"/><text x="144" y="522" fill="#100907" font-family="Geist Mono, ui-monospace, SF Mono, Menlo, Consolas, monospace" font-size="24" font-weight="500" text-anchor="start" dominant-baseline="central">operator</text><g transform="translate(370 505) scale(1.4167)"><path d="M16 6C16 8.20914 14.2091 10 12 10C9.79086 10 8 8.20914 8 6C8 3.79086 9.79086 2 12 2C14.2091 2 16 3.79086 16 6Z" fill="none" stroke="#100907" stroke-width="2" stroke-linecap="square" stroke-miterlimit="10"/><path d="M17.6395 13H18.6622C19.2909 13.9539 20.2983 14.5926 21.4292 14.7544L21.7903 14.806L22.3017 15.6917L22.2611 15.8046C21.8667 16.9004 21.8671 18.0995 22.2624 19.1949L22.3017 19.3038L21.7903 20.1895L21.425 20.2425C20.2963 20.4063 19.2912 21.0441 18.6622 21.9955H17.6395C17.0105 21.0441 16.0054 20.4063 14.8767 20.2425L14.5114 20.1895L14 19.3038L14.0393 19.1949C14.4345 18.0995 14.435 16.9004 14.0406 15.8046L14 15.6917L14.5114 14.806L14.8724 14.7544C16.0034 14.5926 17.0108 13.9539 17.6395 13Z" fill="none" stroke="#100907" stroke-width="2" stroke-linecap="square" stroke-miterlimit="10"/><path d="M18.1508 17.51V17.5" fill="none" stroke="#100907" stroke-width="2" stroke-linecap="square" stroke-miterlimit="10"/><path d="M12.1016 12.9777L10.9297 15.01C8.54526 15.1557 6.18407 15.7891 4 16.9094V20.0002H10.9404L12.0938 22.0002H2V15.7219L2.51465 15.4357C5.49464 13.7802 8.80003 12.9607 12.1016 12.9777Z" fill="#100907"/></g><rect x="776" y="238" width="300" height="96" rx="3" fill="#FFF4E1"/><text x="796" y="286" fill="#100907" font-family="Geist Mono, ui-monospace, SF Mono, Menlo, Consolas, monospace" font-size="24" font-weight="500" text-anchor="start" dominant-baseline="central">reviewer</text><g transform="translate(1022 269) scale(1.4167)"><path d="M20.3777 12.9014L21 4.5L20.4499 4.445C17.508 4.1508 14.6445 3.32223 12 2C9.35553 3.32223 6.49199 4.1508 3.55006 4.44499L3 4.5L3.62236 12.9014C3.85658 16.0632 5.73712 18.8685 8.57285 20.2864L12.0001 22L15.4272 20.2864C18.263 18.8685 20.1435 16.0632 20.3777 12.9014Z" fill="none" stroke="#100907" stroke-width="2" stroke-linecap="square" stroke-miterlimit="10"/><path d="M9 12L11 14L16 9" fill="none" stroke="#100907" stroke-width="2" stroke-linecap="square" stroke-miterlimit="10"/></g><rect x="776" y="356" width="300" height="96" rx="3" fill="#FFF4E1"/><text x="796" y="404" fill="#100907" font-family="Geist Mono, ui-monospace, SF Mono, Menlo, Consolas, monospace" font-size="24" font-weight="500" text-anchor="start" dominant-baseline="central">soteris backend</text><g transform="translate(1022 387) scale(1.4167)"><path d="M21 14H3V21H21V14Z" fill="none" stroke="#100907" stroke-width="2" stroke-linecap="square" stroke-miterlimit="10"/><path d="M21 3H3V10H21V3Z" fill="none" stroke="#100907" stroke-width="2" stroke-linecap="square" stroke-miterlimit="10"/><path d="M17 6.5V6.49" fill="none" stroke="#100907" stroke-width="2" stroke-linecap="square" stroke-miterlimit="10"/><path d="M13 6.5V6.49" fill="none" stroke="#100907" stroke-width="2" stroke-linecap="square" stroke-miterlimit="10"/><path d="M17 17.5V17.49" fill="none" stroke="#100907" stroke-width="2" stroke-linecap="square" stroke-miterlimit="10"/><path d="M13 17.5V17.49" fill="none" stroke="#100907" stroke-width="2" stroke-linecap="square" stroke-miterlimit="10"/></g><rect x="494" y="324" width="3" height="28" fill="#F88B43"/><rect x="503" y="324" width="3" height="28" fill="#F88B43"/><rect x="512" y="324" width="3" height="28" fill="#F88B43"/><rect x="521" y="324" width="3" height="28" fill="#F88B43"/><rect x="530" y="324" width="3" height="28" fill="#F88B43"/><rect x="539" y="324" width="3" height="28" fill="#F88B43"/><rect x="548" y="324" width="3" height="28" fill="#F88B43"/><rect x="557" y="324" width="3" height="28" fill="#F88B43"/><rect x="566" y="324" width="3" height="28" fill="#F88B43"/><rect x="575" y="324" width="3" height="28" fill="#F88B43"/><rect x="584" y="324" width="3" height="28" fill="#F88B43"/><rect x="593" y="324" width="3" height="28" fill="#F88B43"/><rect x="602" y="324" width="3" height="28" fill="#F88B43"/><rect x="611" y="324" width="3" height="28" fill="#F88B43"/><rect x="620" y="324" width="3" height="28" fill="#F88B43"/><rect x="629" y="324" width="3" height="28" fill="#F88B43"/><rect x="638" y="324" width="3" height="28" fill="#F88B43"/><rect x="647" y="324" width="3" height="28" fill="#F88B43"/><rect x="656" y="324" width="3" height="28" fill="#F88B43"/><rect x="665" y="324" width="3" height="28" fill="#F88B43"/><rect x="674" y="324" width="3" height="28" fill="#F88B43"/><rect x="683" y="324" width="3" height="28" fill="#F88B43"/><path d="M692 324L706 338L692 352Z" fill="#F88B43"/>
</svg>
