<svg xmlns="http://www.w3.org/2000/svg" width="1200" height="1550" viewBox="0 0 1200 1550" role="img" aria-label="Engagement lifecycle state machine">
<path d="M600 0V1550" fill="none" stroke="#E9DDC4" stroke-opacity="0.9" stroke-width="1200" stroke-dasharray="1 5"/><rect x="190" y="66" width="357" height="60" rx="3" fill="#100907"/><text x="368.5" y="96" fill="#FFF4E1" font-family="Geist Mono, ui-monospace, SF Mono, Menlo, Consolas, monospace" font-size="24" font-weight="500" text-anchor="middle" dominant-baseline="central">proposal_accepted_paid</text><rect x="190" y="179" width="300" height="60" rx="3" fill="#100907"/><text x="340" y="209" fill="#FFF4E1" font-family="Geist Mono, ui-monospace, SF Mono, Menlo, Consolas, monospace" font-size="24" font-weight="500" text-anchor="middle" dominant-baseline="central">engagement_created</text><rect x="190" y="292" width="256" height="60" rx="3" fill="#100907"/><text x="318" y="322" fill="#FFF4E1" font-family="Geist Mono, ui-monospace, SF Mono, Menlo, Consolas, monospace" font-size="24" font-weight="500" text-anchor="middle" dominant-baseline="central">onboarding_open</text><rect x="190" y="405" width="300" height="60" rx="3" fill="#100907"/><text x="340" y="435" fill="#FFF4E1" font-family="Geist Mono, ui-monospace, SF Mono, Menlo, Consolas, monospace" font-size="24" font-weight="500" text-anchor="middle" dominant-baseline="central">document_gate_open</text><rect x="190" y="518" width="386" height="60" rx="3" fill="#100907"/><text x="383" y="548" fill="#FFF4E1" font-family="Geist Mono, ui-monospace, SF Mono, Menlo, Consolas, monospace" font-size="24" font-weight="500" text-anchor="middle" dominant-baseline="central">ready_for_soteris_review</text><rect x="190" y="631" width="199" height="60" rx="3" fill="#100907"/><text x="289.5" y="661" fill="#FFF4E1" font-family="Geist Mono, ui-monospace, SF Mono, Menlo, Consolas, monospace" font-size="24" font-weight="500" text-anchor="middle" dominant-baseline="central">agent_ready</text><rect x="190" y="744" width="228" height="60" rx="3" fill="#100907"/><text x="304" y="774" fill="#FFF4E1" font-family="Geist Mono, ui-monospace, SF Mono, Menlo, Consolas, monospace" font-size="24" font-weight="500" text-anchor="middle" dominant-baseline="central">agent_running</text><rect x="190" y="857" width="242" height="60" rx="3" fill="#100907"/><text x="311" y="887" fill="#FFF4E1" font-family="Geist Mono, ui-monospace, SF Mono, Menlo, Consolas, monospace" font-size="24" font-weight="500" text-anchor="middle" dominant-baseline="central">soteris_review</text><rect x="190" y="970" width="156" height="60" rx="3" fill="#100907"/><text x="268" y="1000" fill="#FFF4E1" font-family="Geist Mono, ui-monospace, SF Mono, Menlo, Consolas, monospace" font-size="24" font-weight="500" text-anchor="middle" dominant-baseline="central">cpa_gate</text><rect x="190" y="1083" width="300" height="60" rx="3" fill="#100907"/><text x="340" y="1113" fill="#FFF4E1" font-family="Geist Mono, ui-monospace, SF Mono, Menlo, Consolas, monospace" font-size="24" font-weight="500" text-anchor="middle" dominant-baseline="central">deliverable_review</text><rect x="190" y="1196" width="343" height="60" rx="3" fill="#100907"/><text x="361.5" y="1226" fill="#FFF4E1" font-family="Geist Mono, ui-monospace, SF Mono, Menlo, Consolas, monospace" font-size="24" font-weight="500" text-anchor="middle" dominant-baseline="central">final_payment_pending</text><rect x="190" y="1309" width="199" height="60" rx="3" fill="#100907"/><text x="289.5" y="1339" fill="#FFF4E1" font-family="Geist Mono, ui-monospace, SF Mono, Menlo, Consolas, monospace" font-size="24" font-weight="500" text-anchor="middle" dominant-baseline="central">closed_paid</text><rect x="191" y="1423" width="158" height="58" rx="3" fill="#F88B43" stroke="#100907" stroke-width="2"/><text x="270" y="1452" fill="#100907" font-family="Geist Mono, ui-monospace, SF Mono, Menlo, Consolas, monospace" font-size="24" font-weight="500" text-anchor="middle" dominant-baseline="central">archived</text><rect x="730" y="405" width="343" height="60" rx="3" fill="#100907"/><text x="901.5" y="435" fill="#FFF4E1" font-family="Geist Mono, ui-monospace, SF Mono, Menlo, Consolas, monospace" font-size="24" font-weight="500" text-anchor="middle" dominant-baseline="central">document_gate_blocked</text><rect x="730" y="857" width="372" height="60" rx="3" fill="#100907"/><text x="916" y="887" fill="#FFF4E1" font-family="Geist Mono, ui-monospace, SF Mono, Menlo, Consolas, monospace" font-size="24" font-weight="500" text-anchor="middle" dominant-baseline="central">clarification_requested</text><rect x="254" y="132" width="28" height="3" fill="#100907"/><rect x="254" y="141" width="28" height="3" fill="#100907"/><rect x="254" y="150" width="28" height="3" fill="#100907"/><path d="M254 159L282 159L268 173Z" fill="#100907"/><rect x="254" y="245" width="28" height="3" fill="#100907"/><rect x="254" y="254" width="28" height="3" fill="#100907"/><rect x="254" y="263" width="28" height="3" fill="#100907"/><path d="M254 272L282 272L268 286Z" fill="#100907"/><rect x="254" y="358" width="28" height="3" fill="#100907"/><rect x="254" y="367" width="28" height="3" fill="#100907"/><rect x="254" y="376" width="28" height="3" fill="#100907"/><path d="M254 385L282 385L268 399Z" fill="#100907"/><rect x="254" y="471" width="28" height="3" fill="#100907"/><rect x="254" y="480" width="28" height="3" fill="#100907"/><rect x="254" y="489" width="28" height="3" fill="#100907"/><path d="M254 498L282 498L268 512Z" fill="#100907"/><rect x="254" y="584" width="28" height="3" fill="#100907"/><rect x="254" y="593" width="28" height="3" fill="#100907"/><rect x="254" y="602" width="28" height="3" fill="#100907"/><path d="M254 611L282 611L268 625Z" fill="#100907"/><rect x="254" y="697" width="28" height="3" fill="#100907"/><rect x="254" y="706" width="28" height="3" fill="#100907"/><rect x="254" y="715" width="28" height="3" fill="#100907"/><path d="M254 724L282 724L268 738Z" fill="#100907"/><rect x="254" y="810" width="28" height="3" fill="#100907"/><rect x="254" y="819" width="28" height="3" fill="#100907"/><rect x="254" y="828" width="28" height="3" fill="#100907"/><path d="M254 837L282 837L268 851Z" fill="#100907"/><rect x="254" y="923" width="28" height="3" fill="#100907"/><rect x="254" y="932" width="28" height="3" fill="#100907"/><rect x="254" y="941" width="28" height="3" fill="#100907"/><path d="M254 950L282 950L268 964Z" fill="#100907"/><rect x="254" y="1036" width="28" height="3" fill="#100907"/><rect x="254" y="1045" width="28" height="3" fill="#100907"/><rect x="254" y="1054" width="28" height="3" fill="#100907"/><path d="M254 1063L282 1063L268 1077Z" fill="#100907"/><rect x="254" y="1149" width="28" height="3" fill="#100907"/><rect x="254" y="1158" width="28" height="3" fill="#100907"/><rect x="254" y="1167" width="28" height="3" fill="#100907"/><path d="M254 1176L282 1176L268 1190Z" fill="#100907"/><rect x="254" y="1262" width="28" height="3" fill="#100907"/><rect x="254" y="1271" width="28" height="3" fill="#100907"/><rect x="254" y="1280" width="28" height="3" fill="#100907"/><path d="M254 1289L282 1289L268 1303Z" fill="#100907"/><rect x="254" y="1375" width="28" height="3" fill="#100907"/><rect x="254" y="1384" width="28" height="3" fill="#100907"/><rect x="254" y="1393" width="28" height="3" fill="#100907"/><path d="M254 1402L282 1402L268 1416Z" fill="#100907"/><path d="M298 937L326 937L312 923Z" fill="#100907"/><rect x="298" y="943" width="28" height="3" fill="#100907"/><rect x="298" y="952" width="28" height="3" fill="#100907"/><rect x="298" y="961" width="28" height="3" fill="#100907"/><rect x="502" y="399" width="3" height="28" fill="#100907"/><rect x="511" y="399" width="3" height="28" fill="#100907"/><rect x="520" y="399" width="3" height="28" fill="#100907"/><rect x="529" y="399" width="3" height="28" fill="#100907"/><rect x="538" y="399" width="3" height="28" fill="#100907"/><rect x="547" y="399" width="3" height="28" fill="#100907"/><rect x="556" y="399" width="3" height="28" fill="#100907"/><rect x="565" y="399" width="3" height="28" fill="#100907"/><rect x="574" y="399" width="3" height="28" fill="#100907"/><rect x="583" y="399" width="3" height="28" fill="#100907"/><rect x="592" y="399" width="3" height="28" fill="#100907"/><rect x="601" y="399" width="3" height="28" fill="#100907"/><rect x="610" y="399" width="3" height="28" fill="#100907"/><rect x="619" y="399" width="3" height="28" fill="#100907"/><rect x="628" y="399" width="3" height="28" fill="#100907"/><rect x="637" y="399" width="3" height="28" fill="#100907"/><rect x="646" y="399" width="3" height="28" fill="#100907"/><rect x="655" y="399" width="3" height="28" fill="#100907"/><rect x="664" y="399" width="3" height="28" fill="#100907"/><rect x="673" y="399" width="3" height="28" fill="#100907"/><rect x="682" y="399" width="3" height="28" fill="#100907"/><rect x="691" y="399" width="3" height="28" fill="#100907"/><rect x="700" y="399" width="3" height="28" fill="#100907"/><path d="M708 399L722 413L708 427Z" fill="#100907"/><path d="M512 443L498 457L512 471Z" fill="#100907"/><rect x="517" y="443" width="3" height="28" fill="#100907"/><rect x="526" y="443" width="3" height="28" fill="#100907"/><rect x="535" y="443" width="3" height="28" fill="#100907"/><rect x="544" y="443" width="3" height="28" fill="#100907"/><rect x="553" y="443" width="3" height="28" fill="#100907"/><rect x="562" y="443" width="3" height="28" fill="#100907"/><rect x="571" y="443" width="3" height="28" fill="#100907"/><rect x="580" y="443" width="3" height="28" fill="#100907"/><rect x="589" y="443" width="3" height="28" fill="#100907"/><rect x="598" y="443" width="3" height="28" fill="#100907"/><rect x="607" y="443" width="3" height="28" fill="#100907"/><rect x="616" y="443" width="3" height="28" fill="#100907"/><rect x="625" y="443" width="3" height="28" fill="#100907"/><rect x="634" y="443" width="3" height="28" fill="#100907"/><rect x="643" y="443" width="3" height="28" fill="#100907"/><rect x="652" y="443" width="3" height="28" fill="#100907"/><rect x="661" y="443" width="3" height="28" fill="#100907"/><rect x="670" y="443" width="3" height="28" fill="#100907"/><rect x="679" y="443" width="3" height="28" fill="#100907"/><rect x="688" y="443" width="3" height="28" fill="#100907"/><rect x="697" y="443" width="3" height="28" fill="#100907"/><rect x="706" y="443" width="3" height="28" fill="#100907"/><rect x="715" y="443" width="3" height="28" fill="#100907"/><rect x="426" y="760" width="3" height="28" fill="#100907"/><rect x="435" y="760" width="3" height="28" fill="#100907"/><rect x="444" y="760" width="3" height="28" fill="#100907"/><rect x="453" y="760" width="3" height="28" fill="#100907"/><rect x="462" y="760" width="3" height="28" fill="#100907"/><rect x="471" y="760" width="3" height="28" fill="#100907"/><rect x="480" y="760" width="3" height="28" fill="#100907"/><rect x="489" y="760" width="3" height="28" fill="#100907"/><rect x="498" y="760" width="3" height="28" fill="#100907"/><rect x="507" y="760" width="3" height="28" fill="#100907"/><rect x="516" y="760" width="3" height="28" fill="#100907"/><rect x="525" y="760" width="3" height="28" fill="#100907"/><rect x="534" y="760" width="3" height="28" fill="#100907"/><rect x="543" y="760" width="3" height="28" fill="#100907"/><rect x="552" y="760" width="3" height="28" fill="#100907"/><rect x="561" y="760" width="3" height="28" fill="#100907"/><rect x="570" y="760" width="3" height="28" fill="#100907"/><rect x="579" y="760" width="3" height="28" fill="#100907"/><rect x="588" y="760" width="3" height="28" fill="#100907"/><rect x="597" y="760" width="3" height="28" fill="#100907"/><rect x="606" y="760" width="3" height="28" fill="#100907"/><rect x="615" y="760" width="3" height="28" fill="#100907"/><rect x="624" y="760" width="3" height="28" fill="#100907"/><rect x="633" y="760" width="3" height="28" fill="#100907"/><rect x="642" y="760" width="3" height="28" fill="#100907"/><rect x="651" y="760" width="3" height="28" fill="#100907"/><rect x="660" y="760" width="3" height="28" fill="#100907"/><rect x="669" y="760" width="3" height="28" fill="#100907"/><rect x="678" y="760" width="3" height="28" fill="#100907"/><rect x="687" y="760" width="3" height="28" fill="#100907"/><rect x="696" y="760" width="3" height="28" fill="#100907"/><rect x="705" y="760" width="3" height="28" fill="#100907"/><rect x="714" y="760" width="3" height="28" fill="#100907"/><rect x="723" y="760" width="3" height="28" fill="#100907"/><rect x="732" y="760" width="3" height="28" fill="#100907"/><rect x="741" y="760" width="3" height="28" fill="#100907"/><rect x="750" y="760" width="3" height="28" fill="#100907"/><rect x="759" y="760" width="3" height="28" fill="#100907"/><rect x="768" y="760" width="3" height="28" fill="#100907"/><rect x="777" y="760" width="3" height="28" fill="#100907"/><rect x="786" y="760" width="3" height="28" fill="#100907"/><rect x="795" y="760" width="3" height="28" fill="#100907"/><rect x="804" y="760" width="3" height="28" fill="#100907"/><rect x="813" y="760" width="3" height="28" fill="#100907"/><rect x="822" y="760" width="3" height="28" fill="#100907"/><rect x="831" y="760" width="3" height="28" fill="#100907"/><rect x="840" y="760" width="3" height="28" fill="#100907"/><rect x="849" y="760" width="3" height="28" fill="#100907"/><rect x="858" y="760" width="3" height="28" fill="#100907"/><rect x="867" y="760" width="3" height="28" fill="#100907"/><rect x="876" y="760" width="3" height="28" fill="#100907"/><rect x="885" y="760" width="3" height="28" fill="#100907"/><rect x="894" y="760" width="3" height="28" fill="#100907"/><rect x="903" y="760" width="3" height="28" fill="#100907"/><rect x="912" y="770" width="8" height="8" fill="#100907"/><rect x="902" y="787" width="28" height="3" fill="#100907"/><rect x="902" y="796" width="28" height="3" fill="#100907"/><rect x="902" y="805" width="28" height="3" fill="#100907"/><rect x="902" y="814" width="28" height="3" fill="#100907"/><rect x="902" y="823" width="28" height="3" fill="#100907"/><path d="M902 835L930 835L916 849Z" fill="#100907"/><rect x="444" y="851" width="3" height="28" fill="#100907"/><rect x="453" y="851" width="3" height="28" fill="#100907"/><rect x="462" y="851" width="3" height="28" fill="#100907"/><rect x="471" y="851" width="3" height="28" fill="#100907"/><rect x="480" y="851" width="3" height="28" fill="#100907"/><rect x="489" y="851" width="3" height="28" fill="#100907"/><rect x="498" y="851" width="3" height="28" fill="#100907"/><rect x="507" y="851" width="3" height="28" fill="#100907"/><rect x="516" y="851" width="3" height="28" fill="#100907"/><rect x="525" y="851" width="3" height="28" fill="#100907"/><rect x="534" y="851" width="3" height="28" fill="#100907"/><rect x="543" y="851" width="3" height="28" fill="#100907"/><rect x="552" y="851" width="3" height="28" fill="#100907"/><rect x="561" y="851" width="3" height="28" fill="#100907"/><rect x="570" y="851" width="3" height="28" fill="#100907"/><rect x="579" y="851" width="3" height="28" fill="#100907"/><rect x="588" y="851" width="3" height="28" fill="#100907"/><rect x="597" y="851" width="3" height="28" fill="#100907"/><rect x="606" y="851" width="3" height="28" fill="#100907"/><rect x="615" y="851" width="3" height="28" fill="#100907"/><rect x="624" y="851" width="3" height="28" fill="#100907"/><rect x="633" y="851" width="3" height="28" fill="#100907"/><rect x="642" y="851" width="3" height="28" fill="#100907"/><rect x="651" y="851" width="3" height="28" fill="#100907"/><rect x="660" y="851" width="3" height="28" fill="#100907"/><rect x="669" y="851" width="3" height="28" fill="#100907"/><rect x="678" y="851" width="3" height="28" fill="#100907"/><rect x="687" y="851" width="3" height="28" fill="#100907"/><rect x="696" y="851" width="3" height="28" fill="#100907"/><path d="M708 851L722 865L708 879Z" fill="#100907"/><path d="M454 895L440 909L454 923Z" fill="#100907"/><rect x="463" y="895" width="3" height="28" fill="#100907"/><rect x="472" y="895" width="3" height="28" fill="#100907"/><rect x="481" y="895" width="3" height="28" fill="#100907"/><rect x="490" y="895" width="3" height="28" fill="#100907"/><rect x="499" y="895" width="3" height="28" fill="#100907"/><rect x="508" y="895" width="3" height="28" fill="#100907"/><rect x="517" y="895" width="3" height="28" fill="#100907"/><rect x="526" y="895" width="3" height="28" fill="#100907"/><rect x="535" y="895" width="3" height="28" fill="#100907"/><rect x="544" y="895" width="3" height="28" fill="#100907"/><rect x="553" y="895" width="3" height="28" fill="#100907"/><rect x="562" y="895" width="3" height="28" fill="#100907"/><rect x="571" y="895" width="3" height="28" fill="#100907"/><rect x="580" y="895" width="3" height="28" fill="#100907"/><rect x="589" y="895" width="3" height="28" fill="#100907"/><rect x="598" y="895" width="3" height="28" fill="#100907"/><rect x="607" y="895" width="3" height="28" fill="#100907"/><rect x="616" y="895" width="3" height="28" fill="#100907"/><rect x="625" y="895" width="3" height="28" fill="#100907"/><rect x="634" y="895" width="3" height="28" fill="#100907"/><rect x="643" y="895" width="3" height="28" fill="#100907"/><rect x="652" y="895" width="3" height="28" fill="#100907"/><rect x="661" y="895" width="3" height="28" fill="#100907"/><rect x="670" y="895" width="3" height="28" fill="#100907"/><rect x="679" y="895" width="3" height="28" fill="#100907"/><rect x="688" y="895" width="3" height="28" fill="#100907"/><rect x="697" y="895" width="3" height="28" fill="#100907"/><rect x="706" y="895" width="3" height="28" fill="#100907"/><rect x="715" y="895" width="3" height="28" fill="#100907"/><rect x="175" y="1099" width="3" height="28" fill="#100907"/><rect x="166" y="1099" width="3" height="28" fill="#100907"/><rect x="157" y="1099" width="3" height="28" fill="#100907"/><rect x="148" y="1099" width="3" height="28" fill="#100907"/><rect x="139" y="1099" width="3" height="28" fill="#100907"/><rect x="130" y="1099" width="3" height="28" fill="#100907"/><rect x="106" y="1109" width="8" height="8" fill="#100907"/><rect x="96" y="897" width="28" height="3" fill="#100907"/><rect x="96" y="906" width="28" height="3" fill="#100907"/><rect x="96" y="915" width="28" height="3" fill="#100907"/><rect x="96" y="924" width="28" height="3" fill="#100907"/><rect x="96" y="933" width="28" height="3" fill="#100907"/><rect x="96" y="942" width="28" height="3" fill="#100907"/><rect x="96" y="951" width="28" height="3" fill="#100907"/><rect x="96" y="960" width="28" height="3" fill="#100907"/><rect x="96" y="969" width="28" height="3" fill="#100907"/><rect x="96" y="978" width="28" height="3" fill="#100907"/><rect x="96" y="987" width="28" height="3" fill="#100907"/><rect x="96" y="996" width="28" height="3" fill="#100907"/><rect x="96" y="1005" width="28" height="3" fill="#100907"/><rect x="96" y="1014" width="28" height="3" fill="#100907"/><rect x="96" y="1023" width="28" height="3" fill="#100907"/><rect x="96" y="1032" width="28" height="3" fill="#100907"/><rect x="96" y="1041" width="28" height="3" fill="#100907"/><rect x="96" y="1050" width="28" height="3" fill="#100907"/><rect x="96" y="1059" width="28" height="3" fill="#100907"/><rect x="96" y="1068" width="28" height="3" fill="#100907"/><rect x="96" y="1077" width="28" height="3" fill="#100907"/><rect x="96" y="1086" width="28" height="3" fill="#100907"/><rect x="96" y="1095" width="28" height="3" fill="#100907"/><rect x="106" y="883" width="8" height="8" fill="#100907"/><rect x="120" y="873" width="3" height="28" fill="#100907"/><rect x="129" y="873" width="3" height="28" fill="#100907"/><rect x="138" y="873" width="3" height="28" fill="#100907"/><rect x="147" y="873" width="3" height="28" fill="#100907"/><rect x="156" y="873" width="3" height="28" fill="#100907"/><path d="M168 873L182 887L168 901Z" fill="#100907"/>
</svg>
