<svg xmlns="http://www.w3.org/2000/svg" width="1200" height="675" viewBox="0 0 1200 675" role="img" aria-label="Loop-back transitions against the forward path">
<path d="M600 0V675" fill="none" stroke="#E9DDC4" stroke-opacity="0.108" stroke-width="1200" stroke-dasharray="1 5"/><rect x="80" y="80" width="350" height="60" rx="3" fill="#FFF4E1"/><text x="255" y="110" fill="#100907" font-family="Geist Mono, ui-monospace, SF Mono, Menlo, Consolas, monospace" font-size="24" font-weight="500" text-anchor="middle" dominant-baseline="central">document_gate_open</text><rect x="690" y="80" width="400" height="60" rx="3" fill="#FFF4E1"/><text x="890" y="110" fill="#100907" font-family="Geist Mono, ui-monospace, SF Mono, Menlo, Consolas, monospace" font-size="24" font-weight="500" text-anchor="middle" dominant-baseline="central">document_gate_blocked</text><rect x="200" y="210" width="260" height="60" rx="3" fill="#FFF4E1"/><text x="330" y="240" fill="#100907" font-family="Geist Mono, ui-monospace, SF Mono, Menlo, Consolas, monospace" font-size="24" font-weight="500" text-anchor="middle" dominant-baseline="central">agent_running</text><rect x="640" y="320" width="430" height="60" rx="3" fill="#FFF4E1"/><text x="855" y="350" fill="#100907" font-family="Geist Mono, ui-monospace, SF Mono, Menlo, Consolas, monospace" font-size="24" font-weight="500" text-anchor="middle" dominant-baseline="central">clarification_requested</text><rect x="200" y="320" width="280" height="60" rx="3" fill="#FFF4E1"/><text x="340" y="350" fill="#100907" font-family="Geist Mono, ui-monospace, SF Mono, Menlo, Consolas, monospace" font-size="24" font-weight="500" text-anchor="middle" dominant-baseline="central">soteris_review</text><rect x="200" y="430" width="180" height="60" rx="3" fill="#FFF4E1"/><text x="290" y="460" fill="#100907" font-family="Geist Mono, ui-monospace, SF Mono, Menlo, Consolas, monospace" font-size="24" font-weight="500" text-anchor="middle" dominant-baseline="central">cpa_gate</text><rect x="200" y="540" width="350" height="60" rx="3" fill="#FFF4E1"/><text x="375" y="570" fill="#100907" font-family="Geist Mono, ui-monospace, SF Mono, Menlo, Consolas, monospace" font-size="24" font-weight="500" text-anchor="middle" dominant-baseline="central">deliverable_review</text><rect x="442" y="74" width="3" height="28" fill="#FFF4E1"/><rect x="451" y="74" width="3" height="28" fill="#FFF4E1"/><rect x="460" y="74" width="3" height="28" fill="#FFF4E1"/><rect x="469" y="74" width="3" height="28" fill="#FFF4E1"/><rect x="478" y="74" width="3" height="28" fill="#FFF4E1"/><rect x="487" y="74" width="3" height="28" fill="#FFF4E1"/><rect x="496" y="74" width="3" height="28" fill="#FFF4E1"/><rect x="505" y="74" width="3" height="28" fill="#FFF4E1"/><rect x="514" y="74" width="3" height="28" fill="#FFF4E1"/><rect x="523" y="74" width="3" height="28" fill="#FFF4E1"/><rect x="532" y="74" width="3" height="28" fill="#FFF4E1"/><rect x="541" y="74" width="3" height="28" fill="#FFF4E1"/><rect x="550" y="74" width="3" height="28" fill="#FFF4E1"/><rect x="559" y="74" width="3" height="28" fill="#FFF4E1"/><rect x="568" y="74" width="3" height="28" fill="#FFF4E1"/><rect x="577" y="74" width="3" height="28" fill="#FFF4E1"/><rect x="586" y="74" width="3" height="28" fill="#FFF4E1"/><rect x="595" y="74" width="3" height="28" fill="#FFF4E1"/><rect x="604" y="74" width="3" height="28" fill="#FFF4E1"/><rect x="613" y="74" width="3" height="28" fill="#FFF4E1"/><rect x="622" y="74" width="3" height="28" fill="#FFF4E1"/><rect x="631" y="74" width="3" height="28" fill="#FFF4E1"/><rect x="640" y="74" width="3" height="28" fill="#FFF4E1"/><rect x="649" y="74" width="3" height="28" fill="#FFF4E1"/><rect x="658" y="74" width="3" height="28" fill="#FFF4E1"/><path d="M668 74L682 88L668 102Z" fill="#FFF4E1"/><path d="M452 118L438 132L452 146Z" fill="#FFF4E1"/><rect x="458" y="118" width="3" height="28" fill="#FFF4E1"/><rect x="467" y="118" width="3" height="28" fill="#FFF4E1"/><rect x="476" y="118" width="3" height="28" fill="#FFF4E1"/><rect x="485" y="118" width="3" height="28" fill="#FFF4E1"/><rect x="494" y="118" width="3" height="28" fill="#FFF4E1"/><rect x="503" y="118" width="3" height="28" fill="#FFF4E1"/><rect x="512" y="118" width="3" height="28" fill="#FFF4E1"/><rect x="521" y="118" width="3" height="28" fill="#FFF4E1"/><rect x="530" y="118" width="3" height="28" fill="#FFF4E1"/><rect x="539" y="118" width="3" height="28" fill="#FFF4E1"/><rect x="548" y="118" width="3" height="28" fill="#FFF4E1"/><rect x="557" y="118" width="3" height="28" fill="#FFF4E1"/><rect x="566" y="118" width="3" height="28" fill="#FFF4E1"/><rect x="575" y="118" width="3" height="28" fill="#FFF4E1"/><rect x="584" y="118" width="3" height="28" fill="#FFF4E1"/><rect x="593" y="118" width="3" height="28" fill="#FFF4E1"/><rect x="602" y="118" width="3" height="28" fill="#FFF4E1"/><rect x="611" y="118" width="3" height="28" fill="#FFF4E1"/><rect x="620" y="118" width="3" height="28" fill="#FFF4E1"/><rect x="629" y="118" width="3" height="28" fill="#FFF4E1"/><rect x="638" y="118" width="3" height="28" fill="#FFF4E1"/><rect x="647" y="118" width="3" height="28" fill="#FFF4E1"/><rect x="656" y="118" width="3" height="28" fill="#FFF4E1"/><rect x="665" y="118" width="3" height="28" fill="#FFF4E1"/><rect x="674" y="118" width="3" height="28" fill="#FFF4E1"/><rect x="472" y="226" width="3" height="28" fill="#FFF4E1"/><rect x="481" y="226" width="3" height="28" fill="#FFF4E1"/><rect x="490" y="226" width="3" height="28" fill="#FFF4E1"/><rect x="499" y="226" width="3" height="28" fill="#FFF4E1"/><rect x="508" y="226" width="3" height="28" fill="#FFF4E1"/><rect x="517" y="226" width="3" height="28" fill="#FFF4E1"/><rect x="526" y="226" width="3" height="28" fill="#FFF4E1"/><rect x="535" y="226" width="3" height="28" fill="#FFF4E1"/><rect x="544" y="226" width="3" height="28" fill="#FFF4E1"/><rect x="553" y="226" width="3" height="28" fill="#FFF4E1"/><rect x="562" y="226" width="3" height="28" fill="#FFF4E1"/><rect x="571" y="226" width="3" height="28" fill="#FFF4E1"/><rect x="580" y="226" width="3" height="28" fill="#FFF4E1"/><rect x="589" y="226" width="3" height="28" fill="#FFF4E1"/><rect x="598" y="226" width="3" height="28" fill="#FFF4E1"/><rect x="607" y="226" width="3" height="28" fill="#FFF4E1"/><rect x="616" y="226" width="3" height="28" fill="#FFF4E1"/><rect x="625" y="226" width="3" height="28" fill="#FFF4E1"/><rect x="634" y="226" width="3" height="28" fill="#FFF4E1"/><rect x="643" y="226" width="3" height="28" fill="#FFF4E1"/><rect x="652" y="226" width="3" height="28" fill="#FFF4E1"/><rect x="661" y="226" width="3" height="28" fill="#FFF4E1"/><rect x="670" y="226" width="3" height="28" fill="#FFF4E1"/><rect x="679" y="226" width="3" height="28" fill="#FFF4E1"/><rect x="688" y="226" width="3" height="28" fill="#FFF4E1"/><rect x="697" y="226" width="3" height="28" fill="#FFF4E1"/><rect x="706" y="226" width="3" height="28" fill="#FFF4E1"/><rect x="715" y="226" width="3" height="28" fill="#FFF4E1"/><rect x="724" y="226" width="3" height="28" fill="#FFF4E1"/><rect x="733" y="226" width="3" height="28" fill="#FFF4E1"/><rect x="742" y="226" width="3" height="28" fill="#FFF4E1"/><rect x="751" y="226" width="3" height="28" fill="#FFF4E1"/><rect x="760" y="226" width="3" height="28" fill="#FFF4E1"/><rect x="769" y="226" width="3" height="28" fill="#FFF4E1"/><rect x="778" y="226" width="3" height="28" fill="#FFF4E1"/><rect x="787" y="226" width="3" height="28" fill="#FFF4E1"/><rect x="796" y="226" width="3" height="28" fill="#FFF4E1"/><rect x="805" y="226" width="3" height="28" fill="#FFF4E1"/><rect x="814" y="226" width="3" height="28" fill="#FFF4E1"/><rect x="823" y="226" width="3" height="28" fill="#FFF4E1"/><rect x="832" y="226" width="3" height="28" fill="#FFF4E1"/><rect x="841" y="226" width="3" height="28" fill="#FFF4E1"/><rect x="851" y="236" width="8" height="8" fill="#FFF4E1"/><rect x="841" y="252" width="28" height="3" fill="#FFF4E1"/><rect x="841" y="261" width="28" height="3" fill="#FFF4E1"/><rect x="841" y="270" width="28" height="3" fill="#FFF4E1"/><rect x="841" y="279" width="28" height="3" fill="#FFF4E1"/><rect x="841" y="288" width="28" height="3" fill="#FFF4E1"/><path d="M841 298L869 298L855 312Z" fill="#FFF4E1"/><rect x="492" y="314" width="3" height="28" fill="#FFF4E1"/><rect x="501" y="314" width="3" height="28" fill="#FFF4E1"/><rect x="510" y="314" width="3" height="28" fill="#FFF4E1"/><rect x="519" y="314" width="3" height="28" fill="#FFF4E1"/><rect x="528" y="314" width="3" height="28" fill="#FFF4E1"/><rect x="537" y="314" width="3" height="28" fill="#FFF4E1"/><rect x="546" y="314" width="3" height="28" fill="#FFF4E1"/><rect x="555" y="314" width="3" height="28" fill="#FFF4E1"/><rect x="564" y="314" width="3" height="28" fill="#FFF4E1"/><rect x="573" y="314" width="3" height="28" fill="#FFF4E1"/><rect x="582" y="314" width="3" height="28" fill="#FFF4E1"/><rect x="591" y="314" width="3" height="28" fill="#FFF4E1"/><rect x="600" y="314" width="3" height="28" fill="#FFF4E1"/><rect x="609" y="314" width="3" height="28" fill="#FFF4E1"/><path d="M618 314L632 328L618 342Z" fill="#FFF4E1"/><path d="M502 358L488 372L502 386Z" fill="#FFF4E1"/><rect x="508" y="358" width="3" height="28" fill="#FFF4E1"/><rect x="517" y="358" width="3" height="28" fill="#FFF4E1"/><rect x="526" y="358" width="3" height="28" fill="#FFF4E1"/><rect x="535" y="358" width="3" height="28" fill="#FFF4E1"/><rect x="544" y="358" width="3" height="28" fill="#FFF4E1"/><rect x="553" y="358" width="3" height="28" fill="#FFF4E1"/><rect x="562" y="358" width="3" height="28" fill="#FFF4E1"/><rect x="571" y="358" width="3" height="28" fill="#FFF4E1"/><rect x="580" y="358" width="3" height="28" fill="#FFF4E1"/><rect x="589" y="358" width="3" height="28" fill="#FFF4E1"/><rect x="598" y="358" width="3" height="28" fill="#FFF4E1"/><rect x="607" y="358" width="3" height="28" fill="#FFF4E1"/><rect x="616" y="358" width="3" height="28" fill="#FFF4E1"/><rect x="625" y="358" width="3" height="28" fill="#FFF4E1"/><rect x="316" y="276" width="28" height="3" fill="#FFF4E1"/><rect x="316" y="285" width="28" height="3" fill="#FFF4E1"/><rect x="316" y="294" width="28" height="3" fill="#FFF4E1"/><path d="M316 301L344 301L330 315Z" fill="#FFF4E1"/><rect x="254" y="386" width="28" height="3" fill="#FFF4E1"/><rect x="254" y="395" width="28" height="3" fill="#FFF4E1"/><rect x="254" y="404" width="28" height="3" fill="#FFF4E1"/><path d="M254 411L282 411L268 425Z" fill="#FFF4E1"/><path d="M298 399L326 399L312 385Z" fill="#FFF4E1"/><rect x="298" y="403" width="28" height="3" fill="#FFF4E1"/><rect x="298" y="412" width="28" height="3" fill="#FFF4E1"/><rect x="298" y="421" width="28" height="3" fill="#FFF4E1"/><rect x="276" y="496" width="28" height="3" fill="#FFF4E1"/><rect x="276" y="505" width="28" height="3" fill="#FFF4E1"/><rect x="276" y="514" width="28" height="3" fill="#FFF4E1"/><path d="M276 521L304 521L290 535Z" fill="#FFF4E1"/><rect x="185" y="556" width="3" height="28" fill="#FFF4E1"/><rect x="176" y="556" width="3" height="28" fill="#FFF4E1"/><rect x="167" y="556" width="3" height="28" fill="#FFF4E1"/><rect x="158" y="556" width="3" height="28" fill="#FFF4E1"/><rect x="149" y="556" width="3" height="28" fill="#FFF4E1"/><rect x="140" y="556" width="3" height="28" fill="#FFF4E1"/><rect x="131" y="556" width="3" height="28" fill="#FFF4E1"/><rect x="116" y="566" width="8" height="8" fill="#FFF4E1"/><rect x="96" y="360" width="28" height="3" fill="#FFF4E1"/><rect x="96" y="369" width="28" height="3" fill="#FFF4E1"/><rect x="96" y="378" width="28" height="3" fill="#FFF4E1"/><rect x="96" y="387" width="28" height="3" fill="#FFF4E1"/><rect x="96" y="396" width="28" height="3" fill="#FFF4E1"/><rect x="96" y="405" width="28" height="3" fill="#FFF4E1"/><rect x="96" y="414" width="28" height="3" fill="#FFF4E1"/><rect x="96" y="423" width="28" height="3" fill="#FFF4E1"/><rect x="96" y="432" width="28" height="3" fill="#FFF4E1"/><rect x="96" y="441" width="28" height="3" fill="#FFF4E1"/><rect x="96" y="450" width="28" height="3" fill="#FFF4E1"/><rect x="96" y="459" width="28" height="3" fill="#FFF4E1"/><rect x="96" y="468" width="28" height="3" fill="#FFF4E1"/><rect x="96" y="477" width="28" height="3" fill="#FFF4E1"/><rect x="96" y="486" width="28" height="3" fill="#FFF4E1"/><rect x="96" y="495" width="28" height="3" fill="#FFF4E1"/><rect x="96" y="504" width="28" height="3" fill="#FFF4E1"/><rect x="96" y="513" width="28" height="3" fill="#FFF4E1"/><rect x="96" y="522" width="28" height="3" fill="#FFF4E1"/><rect x="96" y="531" width="28" height="3" fill="#FFF4E1"/><rect x="96" y="540" width="28" height="3" fill="#FFF4E1"/><rect x="96" y="549" width="28" height="3" fill="#FFF4E1"/><rect x="96" y="558" width="28" height="3" fill="#FFF4E1"/><rect x="116" y="346" width="8" height="8" fill="#FFF4E1"/><rect x="130" y="336" width="3" height="28" fill="#FFF4E1"/><rect x="139" y="336" width="3" height="28" fill="#FFF4E1"/><rect x="148" y="336" width="3" height="28" fill="#FFF4E1"/><rect x="157" y="336" width="3" height="28" fill="#FFF4E1"/><rect x="166" y="336" width="3" height="28" fill="#FFF4E1"/><path d="M178 336L192 350L178 364Z" fill="#FFF4E1"/>
</svg>
