<svg xmlns="http://www.w3.org/2000/svg" width="1200" height="675" viewBox="0 0 1200 675" role="img" aria-label="Record flow across the five public record families">
<path d="M600 0V675" fill="none" stroke="#E9DDC4" stroke-opacity="0.108" stroke-width="1200" stroke-dasharray="1 5"/><rect x="65" y="195" width="200" height="150" rx="3" fill="#FFF4E1"/><text x="79" y="224" fill="#100907" font-family="Geist Mono, ui-monospace, SF Mono, Menlo, Consolas, monospace" font-size="24" font-weight="500" text-anchor="start" dominant-baseline="central">input</text><text x="79" y="254" fill="#100907" font-family="Geist Mono, ui-monospace, SF Mono, Menlo, Consolas, monospace" font-size="24" font-weight="500" text-anchor="start" dominant-baseline="central">record</text><g transform="translate(209 289) scale(1.7500)"><path d="M16 3H21V7" fill="none" stroke="#100907" stroke-width="2" stroke-linecap="square" stroke-miterlimit="10"/><path d="M16 21H21V17" fill="none" stroke="#100907" stroke-width="2" stroke-linecap="square" stroke-miterlimit="10"/><path d="M3 7L3 3L8 3" fill="none" stroke="#100907" stroke-width="2" stroke-linecap="square" stroke-miterlimit="10"/><path d="M3 17L3 21L8 21" fill="none" stroke="#100907" stroke-width="2" stroke-linecap="square" stroke-miterlimit="10"/><path d="M2 12H22" fill="none" stroke="#100907" stroke-width="2" stroke-linecap="square" stroke-miterlimit="10"/></g><rect x="345" y="195" width="200" height="150" rx="3" fill="#FFF4E1"/><text x="359" y="224" fill="#100907" font-family="Geist Mono, ui-monospace, SF Mono, Menlo, Consolas, monospace" font-size="24" font-weight="500" text-anchor="start" dominant-baseline="central">artifact</text><text x="359" y="254" fill="#100907" font-family="Geist Mono, ui-monospace, SF Mono, Menlo, Consolas, monospace" font-size="24" font-weight="500" text-anchor="start" dominant-baseline="central">record</text><g transform="translate(489 289) scale(1.7500)"><path d="M17 3H21V21H17" fill="none" stroke="#100907" stroke-width="2" stroke-linecap="square" stroke-miterlimit="10"/><path d="M7 3L3 3V21H7" fill="none" stroke="#100907" stroke-width="2" stroke-linecap="square" stroke-miterlimit="10"/><path d="M12 16.01V16" fill="none" stroke="#100907" stroke-width="2" stroke-linecap="square" stroke-miterlimit="10"/><path d="M16 16.01V16" fill="none" stroke="#100907" stroke-width="2" stroke-linecap="square" stroke-miterlimit="10"/><path d="M8 16.01V16" fill="none" stroke="#100907" stroke-width="2" stroke-linecap="square" stroke-miterlimit="10"/></g><rect x="625" y="195" width="200" height="150" rx="3" fill="#FFF4E1"/><text x="639" y="224" fill="#100907" font-family="Geist Mono, ui-monospace, SF Mono, Menlo, Consolas, monospace" font-size="24" font-weight="500" text-anchor="start" dominant-baseline="central">release</text><text x="639" y="254" fill="#100907" font-family="Geist Mono, ui-monospace, SF Mono, Menlo, Consolas, monospace" font-size="24" font-weight="500" text-anchor="start" dominant-baseline="central">record</text><g transform="translate(769 289) scale(1.7500)"><path d="M2 18C3.105 18 4.105 18.448 4.828 19.172C5.552 19.895 6 20.895 6 22" fill="none" stroke="#100907" stroke-width="2" stroke-linecap="square" stroke-miterlimit="10"/><path d="M2 14C4.209 14 6.209 14.895 7.657 16.343C9.105 17.791 10 19.791 10 22" fill="none" stroke="#100907" stroke-width="2" stroke-linecap="square" stroke-miterlimit="10"/><path d="M12.5 1C18.299 1 23 5.701 23 11.5C23 17.131 18.567 21.726 13 21.987V19.984C17.462 19.726 21 16.027 21 11.5C21 6.806 17.194 3 12.5 3C7.973 3 4.274 6.538 4.016 11H2.013C2.274 5.433 6.869 1 12.5 1Z" fill="#100907"/></g><rect x="906" y="196" width="198" height="148" rx="3" fill="#F88B43" stroke="#100907" stroke-width="2"/><text x="919" y="224" fill="#100907" font-family="Geist Mono, ui-monospace, SF Mono, Menlo, Consolas, monospace" font-size="24" font-weight="500" text-anchor="start" dominant-baseline="central">verification</text><text x="919" y="254" fill="#100907" font-family="Geist Mono, ui-monospace, SF Mono, Menlo, Consolas, monospace" font-size="24" font-weight="500" text-anchor="start" dominant-baseline="central">receipt</text><g transform="translate(1049 289) scale(1.7500)"><path d="M16 3H21V6" fill="none" stroke="#100907" stroke-width="2" stroke-linecap="square" stroke-miterlimit="10"/><path d="M16 21H21V18" fill="none" stroke="#100907" stroke-width="2" stroke-linecap="square" stroke-miterlimit="10"/><path d="M3 6L3 3L8 3" fill="none" stroke="#100907" stroke-width="2" stroke-linecap="square" stroke-miterlimit="10"/><path d="M3 18L3 21L8 21" fill="none" stroke="#100907" stroke-width="2" stroke-linecap="square" stroke-miterlimit="10"/><path d="M12 7C17.157 7 20 12 20 12C20 12 17.157 17 12 17C6.843 17 4 12 4 12C4 12 6.843 7 12 7Z" fill="none" stroke="#100907" stroke-width="2" stroke-linecap="square" stroke-miterlimit="10"/><path d="M14 12C14 13.105 13.105 14 12 14C10.895 14 10 13.105 10 12C10 10.895 10.895 10 12 10C13.105 10 14 10.895 14 12Z" fill="none" stroke="#100907" stroke-width="2" stroke-linecap="square" stroke-miterlimit="10"/></g><rect x="275.5" y="256" width="3" height="28" fill="#FFF4E1"/><rect x="284.5" y="256" width="3" height="28" fill="#FFF4E1"/><rect x="293.5" y="256" width="3" height="28" fill="#FFF4E1"/><rect x="302.5" y="256" width="3" height="28" fill="#FFF4E1"/><rect x="311.5" y="256" width="3" height="28" fill="#FFF4E1"/><path d="M320.5 256L334.5 270L320.5 284Z" fill="#FFF4E1"/><rect x="555.5" y="256" width="3" height="28" fill="#FFF4E1"/><rect x="564.5" y="256" width="3" height="28" fill="#FFF4E1"/><rect x="573.5" y="256" width="3" height="28" fill="#FFF4E1"/><rect x="582.5" y="256" width="3" height="28" fill="#FFF4E1"/><rect x="591.5" y="256" width="3" height="28" fill="#FFF4E1"/><path d="M600.5 256L614.5 270L600.5 284Z" fill="#FFF4E1"/><rect x="835.5" y="256" width="3" height="28" fill="#FFF4E1"/><rect x="844.5" y="256" width="3" height="28" fill="#FFF4E1"/><rect x="853.5" y="256" width="3" height="28" fill="#FFF4E1"/><rect x="862.5" y="256" width="3" height="28" fill="#FFF4E1"/><rect x="871.5" y="256" width="3" height="28" fill="#FFF4E1"/><path d="M880.5 256L894.5 270L880.5 284Z" fill="#FFF4E1"/><rect x="161" y="377" width="8" height="8" fill="#FFF4E1"/><rect x="1001" y="377" width="8" height="8" fill="#FFF4E1"/><path d="M173 381H997" fill="none" stroke="#FFF4E1" stroke-width="2" stroke-dasharray="6 6"/><path d="M571 410L599 410L585 396Z" fill="#FFF4E1"/><rect x="571" y="416" width="28" height="3" fill="#FFF4E1"/><rect x="571" y="425" width="28" height="3" fill="#FFF4E1"/><rect x="571" y="434" width="28" height="3" fill="#FFF4E1"/><rect x="571" y="443" width="28" height="3" fill="#FFF4E1"/><rect x="571" y="452" width="28" height="3" fill="#FFF4E1"/><rect x="571" y="461" width="28" height="3" fill="#FFF4E1"/><rect x="571" y="470" width="28" height="3" fill="#FFF4E1"/><rect x="571" y="479" width="28" height="3" fill="#FFF4E1"/><rect x="571" y="488" width="28" height="3" fill="#FFF4E1"/><text x="615" y="435" fill="#FFF4E1" font-family="Geist Mono, ui-monospace, SF Mono, Menlo, Consolas, monospace" font-size="24" font-weight="500" text-anchor="start" dominant-baseline="central">[summarizes]</text><rect x="490" y="500" width="190" height="110" rx="3" fill="#FFF4E1"/><text x="504" y="529" fill="#100907" font-family="Geist Mono, ui-monospace, SF Mono, Menlo, Consolas, monospace" font-size="24" font-weight="500" text-anchor="start" dominant-baseline="central">status card</text><g transform="translate(632 562) scale(1.4167)"><path d="M3 3H21" fill="none" stroke="#100907" stroke-width="2" stroke-linecap="square" stroke-miterlimit="10"/><path d="M3 21H21" fill="none" stroke="#100907" stroke-width="2" stroke-linecap="square" stroke-miterlimit="10"/><path d="M18 12L18 12.01" fill="none" stroke="#100907" stroke-width="2" stroke-linecap="square" stroke-miterlimit="10"/><path d="M15 15L15 15.01" fill="none" stroke="#100907" stroke-width="2" stroke-linecap="square" stroke-miterlimit="10"/><path d="M12 12L12 12.01" fill="none" stroke="#100907" stroke-width="2" stroke-linecap="square" stroke-miterlimit="10"/><path d="M9 9L9 9.01" fill="none" stroke="#100907" stroke-width="2" stroke-linecap="square" stroke-miterlimit="10"/><path d="M6 12L6 12.01" fill="none" stroke="#100907" stroke-width="2" stroke-linecap="square" stroke-miterlimit="10"/><path d="M3 15L3 15.01" fill="none" stroke="#100907" stroke-width="2" stroke-linecap="square" stroke-miterlimit="10"/><path d="M21 9L21 9.01" fill="none" stroke="#100907" stroke-width="2" stroke-linecap="square" stroke-miterlimit="10"/></g>
</svg>
