<svg xmlns="http://www.w3.org/2000/svg" width="1200" height="675" viewBox="0 0 1200 675" role="img" aria-label="Surface map: what a partner system reads across the Soteris surfaces">
<path d="M600 0V675" fill="none" stroke="#E9DDC4" stroke-opacity="0.108" stroke-width="1200" stroke-dasharray="1 5"/><rect x="501" y="65" width="634" height="545" rx="3" fill="none" stroke="#FFF4E1" stroke-opacity="0.45" stroke-width="2" stroke-dasharray="9 7"/><text x="528" y="113" fill="#FFF4E1" font-family="Geist Mono, ui-monospace, SF Mono, Menlo, Consolas, monospace" font-size="24" font-weight="500" text-anchor="start" dominant-baseline="central">&gt; soteris</text><rect x="64" y="290" width="300" height="96" rx="3" fill="#FFF4E1"/><text x="84" y="338" fill="#100907" font-family="Geist Mono, ui-monospace, SF Mono, Menlo, Consolas, monospace" font-size="24" font-weight="500" text-anchor="start" dominant-baseline="central">partner system</text><g transform="translate(310 321) scale(1.4167)"><path d="M19 9L19 17" fill="none" stroke="#100907" stroke-width="2" stroke-linecap="square" stroke-miterlimit="10"/><path d="M5 9L5 17" fill="none" stroke="#100907" stroke-width="2" stroke-linecap="square" stroke-miterlimit="10"/><path d="M9.5 9L9.5 17" fill="none" stroke="#100907" stroke-width="2" stroke-linecap="square" stroke-miterlimit="10"/><path d="M14.5 9L14.5 17" fill="none" stroke="#100907" stroke-width="2" stroke-linecap="square" stroke-miterlimit="10"/><path d="M12 1.5L3 6.091V9H21V6.091L12 1.5Z" fill="none" stroke="#100907" stroke-width="2" stroke-linecap="square" stroke-miterlimit="10"/><path d="M21 21H3V17H21V21Z" fill="none" stroke="#100907" stroke-width="2" stroke-linecap="square" stroke-miterlimit="10"/></g><rect x="380" y="324" width="3" height="28" fill="#F88B43"/><rect x="389" y="324" width="3" height="28" fill="#F88B43"/><rect x="398" y="324" width="3" height="28" fill="#F88B43"/><rect x="407" y="324" width="3" height="28" fill="#F88B43"/><rect x="416" y="324" width="3" height="28" fill="#F88B43"/><rect x="425" y="324" width="3" height="28" fill="#F88B43"/><rect x="434" y="324" width="3" height="28" fill="#F88B43"/><rect x="443" y="324" width="3" height="28" fill="#F88B43"/><rect x="452" y="324" width="3" height="28" fill="#F88B43"/><rect x="461" y="324" width="3" height="28" fill="#F88B43"/><path d="M470 324L484 338L470 352Z" fill="#F88B43"/><text x="379" y="286" fill="#F88B43" font-family="Geist Mono, ui-monospace, SF Mono, Menlo, Consolas, monospace" font-size="24" font-weight="500" text-anchor="start" dominant-baseline="central">[reads]</text><rect x="528" y="150" width="280" height="108" rx="3" fill="#FFF4E1"/><text x="548" y="193.5" fill="#100907" font-family="Geist Mono, ui-monospace, SF Mono, Menlo, Consolas, monospace" font-size="22" font-weight="500" text-anchor="start" dominant-baseline="central">developer docs</text><text x="548" y="219.5" fill="#4A3A2E" font-family="Geist Mono, ui-monospace, SF Mono, Menlo, Consolas, monospace" font-size="12" font-weight="500" text-anchor="start" dominant-baseline="central">available</text><g transform="translate(764 190) scale(1.1667)"><path d="M17 3H20V6.646C20 8.702 21.161 10.581 23 11.5V12.5C21.161 13.419 20 15.299 20 17.354V21H17" fill="none" stroke="#100907" stroke-width="2" stroke-linecap="square" stroke-miterlimit="10"/><path d="M7 3H4V6.646C4 8.702 2.839 10.581 1 11.5V12.5C2.839 13.419 4 15.299 4 17.354V21H7" fill="none" stroke="#100907" stroke-width="2" stroke-linecap="square" stroke-miterlimit="10"/></g><rect x="528" y="286" width="280" height="108" rx="3" fill="#FFF4E1"/><text x="548" y="323.5" fill="#100907" font-family="Geist Mono, ui-monospace, SF Mono, Menlo, Consolas, monospace" font-size="22" font-weight="500" text-anchor="start" dominant-baseline="central">portal</text><text x="548" y="348.5" fill="#4A3A2E" font-family="Geist Mono, ui-monospace, SF Mono, Menlo, Consolas, monospace" font-size="12" font-weight="500" text-anchor="start" dominant-baseline="central">available to</text><text x="548" y="362.5" fill="#4A3A2E" font-family="Geist Mono, ui-monospace, SF Mono, Menlo, Consolas, monospace" font-size="12" font-weight="500" text-anchor="start" dominant-baseline="central">provisioned users</text><g transform="translate(764 326) scale(1.1667)"><path d="M21 3H3V21H21V3Z" fill="none" stroke="#100907" stroke-width="2" stroke-linecap="square" stroke-miterlimit="10"/><path d="M7.5 15.5L10.5 12.5L7.5 9.5" fill="none" stroke="#100907" stroke-width="2" stroke-linecap="square" stroke-miterlimit="10"/><path d="M13 16H17" fill="none" stroke="#100907" stroke-width="2" stroke-linecap="square" stroke-miterlimit="10"/></g><rect x="528" y="422" width="280" height="108" rx="3" fill="#FFF4E1"/><text x="548" y="454" fill="#100907" font-family="Geist Mono, ui-monospace, SF Mono, Menlo, Consolas, monospace" font-size="22" font-weight="500" text-anchor="start" dominant-baseline="central">partner data</text><text x="548" y="479" fill="#100907" font-family="Geist Mono, ui-monospace, SF Mono, Menlo, Consolas, monospace" font-size="22" font-weight="500" text-anchor="start" dominant-baseline="central">mapping</text><text x="548" y="503.5" fill="#4A3A2E" font-family="Geist Mono, ui-monospace, SF Mono, Menlo, Consolas, monospace" font-size="12" font-weight="500" text-anchor="start" dominant-baseline="central">available by arrangement</text><g transform="translate(764 462) scale(1.1667)"><path d="M17 3H21V21H17" fill="none" stroke="#100907" stroke-width="2" stroke-linecap="square" stroke-miterlimit="10"/><path d="M7 3L3 3V21H7" fill="none" stroke="#100907" stroke-width="2" stroke-linecap="square" stroke-miterlimit="10"/><path d="M12 16.01V16" fill="none" stroke="#100907" stroke-width="2" stroke-linecap="square" stroke-miterlimit="10"/><path d="M16 16.01V16" fill="none" stroke="#100907" stroke-width="2" stroke-linecap="square" stroke-miterlimit="10"/><path d="M8 16.01V16" fill="none" stroke="#100907" stroke-width="2" stroke-linecap="square" stroke-miterlimit="10"/></g><rect x="828" y="218" width="280" height="108" rx="3" fill="#FFF4E1"/><text x="848" y="242.5" fill="#100907" font-family="Geist Mono, ui-monospace, SF Mono, Menlo, Consolas, monospace" font-size="22" font-weight="500" text-anchor="start" dominant-baseline="central">agent-readable</text><text x="848" y="268.5" fill="#100907" font-family="Geist Mono, ui-monospace, SF Mono, Menlo, Consolas, monospace" font-size="22" font-weight="500" text-anchor="start" dominant-baseline="central">records</text><text x="848" y="293.5" fill="#4A3A2E" font-family="Geist Mono, ui-monospace, SF Mono, Menlo, Consolas, monospace" font-size="12" font-weight="500" text-anchor="start" dominant-baseline="central">available within</text><text x="848" y="307.5" fill="#4A3A2E" font-family="Geist Mono, ui-monospace, SF Mono, Menlo, Consolas, monospace" font-size="12" font-weight="500" text-anchor="start" dominant-baseline="central">permitted scope</text><g transform="translate(1064 258) scale(1.1667)"><path d="M12 12H12.01" fill="none" stroke="#100907" stroke-width="3" stroke-linecap="square" stroke-miterlimit="10"/><path d="M12 5H12.01" fill="none" stroke="#100907" stroke-width="3" stroke-linecap="square" stroke-miterlimit="10"/><path d="M12 19H12.01" fill="none" stroke="#100907" stroke-width="3" stroke-linecap="square" stroke-miterlimit="10"/><path d="M19 12H19.01" fill="none" stroke="#100907" stroke-width="3" stroke-linecap="square" stroke-miterlimit="10"/><path d="M19 5H19.01" fill="none" stroke="#100907" stroke-width="3" stroke-linecap="square" stroke-miterlimit="10"/><path d="M19 19H19.01" fill="none" stroke="#100907" stroke-width="3" stroke-linecap="square" stroke-miterlimit="10"/><path d="M5 12H5.01" fill="none" stroke="#100907" stroke-width="3" stroke-linecap="square" stroke-miterlimit="10"/><path d="M5 19H5.01" fill="none" stroke="#100907" stroke-width="3" stroke-linecap="square" stroke-miterlimit="10"/><path d="M5 5H5.01" fill="none" stroke="#100907" stroke-width="3" stroke-linecap="square" stroke-miterlimit="10"/></g><rect x="828.5" y="354.5" width="279" height="107" rx="3" fill="#F88B43" stroke="#100907" stroke-width="1"/><text x="848" y="391.5" fill="#100907" font-family="Geist Mono, ui-monospace, SF Mono, Menlo, Consolas, monospace" font-size="22" font-weight="500" text-anchor="start" dominant-baseline="central">verification</text><text x="848" y="416.5" fill="#100907" font-family="Geist Mono, ui-monospace, SF Mono, Menlo, Consolas, monospace" font-size="12" font-weight="500" text-anchor="start" dominant-baseline="central">public and</text><text x="848" y="430.5" fill="#100907" font-family="Geist Mono, ui-monospace, SF Mono, Menlo, Consolas, monospace" font-size="12" font-weight="500" text-anchor="start" dominant-baseline="central">permissioned checks</text><g transform="translate(1064 394) scale(1.1667)"><path d="M16 3H21V6" fill="none" stroke="#100907" stroke-width="2" stroke-linecap="square" stroke-miterlimit="10"/><path d="M16 21H21V18" fill="none" stroke="#100907" stroke-width="2" stroke-linecap="square" stroke-miterlimit="10"/><path d="M3 6L3 3L8 3" fill="none" stroke="#100907" stroke-width="2" stroke-linecap="square" stroke-miterlimit="10"/><path d="M3 18L3 21L8 21" fill="none" stroke="#100907" stroke-width="2" stroke-linecap="square" stroke-miterlimit="10"/><path d="M12 7C17.157 7 20 12 20 12C20 12 17.157 17 12 17C6.843 17 4 12 4 12C4 12 6.843 7 12 7Z" fill="none" stroke="#100907" stroke-width="2" stroke-linecap="square" stroke-miterlimit="10"/><path d="M14 12C14 13.105 13.105 14 12 14C10.895 14 10 13.105 10 12C10 10.895 10.895 10 12 10C13.105 10 14 10.895 14 12Z" fill="none" stroke="#100907" stroke-width="2" stroke-linecap="square" stroke-miterlimit="10"/></g>
</svg>
