<svg xmlns="http://www.w3.org/2000/svg" width="1200" height="675" viewBox="0 0 1200 675" role="img" aria-label="Verify-side model: a receipt confirms released-record metadata">
<path d="M600 0V675" fill="none" stroke="#E9DDC4" stroke-opacity="0.9" stroke-width="1200" stroke-dasharray="1 5"/><rect x="641" y="179" width="492" height="318" rx="3" fill="none" stroke="#100907" stroke-opacity="0.4" stroke-width="2" stroke-dasharray="9 7"/><text x="682" y="231" fill="#100907" font-family="Geist Mono, ui-monospace, SF Mono, Menlo, Consolas, monospace" font-size="24" font-weight="500" text-anchor="start" dominant-baseline="central">issue side (private)</text><rect x="242" y="180" width="216" height="110" rx="3" fill="#100907"/><text x="262" y="235" fill="#FFF4E1" font-family="Geist Mono, ui-monospace, SF Mono, Menlo, Consolas, monospace" font-size="24" font-weight="500" text-anchor="start" dominant-baseline="central">receipt</text><g transform="translate(404 218) scale(1.4167)"><path d="M3 3V21" fill="none" stroke="#FFF4E1" stroke-width="2" stroke-linecap="square" stroke-miterlimit="10"/><path d="M9 3V21" fill="none" stroke="#FFF4E1" stroke-width="2" stroke-linecap="square" stroke-miterlimit="10"/><path d="M13 3V21" fill="none" stroke="#FFF4E1" stroke-width="2" stroke-linecap="square" stroke-miterlimit="10"/><path d="M18 3V21" fill="none" stroke="#FFF4E1" stroke-width="2" stroke-linecap="square" stroke-miterlimit="10"/><path d="M7 3V21" fill="none" stroke="#FFF4E1" stroke-width="2" stroke-linecap="square" stroke-miterlimit="10"/><path d="M21 3V21" fill="none" stroke="#FFF4E1" stroke-width="2" stroke-linecap="square" stroke-miterlimit="10"/></g><rect x="94" y="390" width="512" height="96" rx="3" fill="#100907"/><text x="114" y="438" fill="#FFF4E1" font-family="Geist Mono, ui-monospace, SF Mono, Menlo, Consolas, monospace" font-size="24" font-weight="500" text-anchor="start" dominant-baseline="central">metadata of a released record</text><g transform="translate(552 421) scale(1.4167)"><path d="M12 12H12.01" fill="none" stroke="#FFF4E1" stroke-width="3" stroke-linecap="square" stroke-miterlimit="10"/><path d="M12 5H12.01" fill="none" stroke="#FFF4E1" stroke-width="3" stroke-linecap="square" stroke-miterlimit="10"/><path d="M12 19H12.01" fill="none" stroke="#FFF4E1" stroke-width="3" stroke-linecap="square" stroke-miterlimit="10"/><path d="M19 12H19.01" fill="none" stroke="#FFF4E1" stroke-width="3" stroke-linecap="square" stroke-miterlimit="10"/><path d="M19 5H19.01" fill="none" stroke="#FFF4E1" stroke-width="3" stroke-linecap="square" stroke-miterlimit="10"/><path d="M19 19H19.01" fill="none" stroke="#FFF4E1" stroke-width="3" stroke-linecap="square" stroke-miterlimit="10"/><path d="M5 12H5.01" fill="none" stroke="#FFF4E1" stroke-width="3" stroke-linecap="square" stroke-miterlimit="10"/><path d="M5 19H5.01" fill="none" stroke="#FFF4E1" stroke-width="3" stroke-linecap="square" stroke-miterlimit="10"/><path d="M5 5H5.01" fill="none" stroke="#FFF4E1" stroke-width="3" stroke-linecap="square" stroke-miterlimit="10"/></g><rect x="684" y="328" width="410" height="96" rx="3" fill="#100907"/><text x="704" y="376" fill="#FFF4E1" font-family="Geist Mono, ui-monospace, SF Mono, Menlo, Consolas, monospace" font-size="24" font-weight="500" text-anchor="start" dominant-baseline="central">professional reasoning</text><g transform="translate(1040 359) scale(1.4167)"><path d="M12 12L12.007 12.007" fill="none" stroke="#FFF4E1" stroke-width="3" stroke-linecap="square" stroke-miterlimit="10"/><path d="M18.456 2.008C19.429 1.955 20.408 2.168 21.12 2.88C21.832 3.592 22.045 4.571 21.992 5.544C21.939 6.517 21.618 7.602 21.116 8.717C20.11 10.953 18.284 13.511 15.898 15.898C15.676 16.119 15.452 16.334 15.229 16.545C14.691 16.208 14.125 15.817 13.548 15.376C13.861 15.089 14.173 14.792 14.482 14.482C16.743 12.223 18.409 9.86 19.293 7.897C19.736 6.912 19.96 6.077 19.995 5.436C20.03 4.794 19.875 4.463 19.706 4.294C19.538 4.125 19.206 3.97 18.565 4.005C17.923 4.04 17.089 4.264 16.104 4.707C14.14 5.591 11.778 7.258 9.518 9.518C7.258 11.778 5.591 14.14 4.707 16.104C4.264 17.089 4.04 17.923 4.005 18.565C3.97 19.206 4.125 19.538 4.294 19.706C4.518 19.93 5.042 20.126 6.113 19.901C6.801 19.757 7.61 19.453 8.503 18.997C9.058 19.477 9.62 19.932 10.189 20.358C8.897 21.098 7.647 21.623 6.525 21.858C5.215 22.133 3.822 22.062 2.88 21.12C2.168 20.408 1.955 19.429 2.008 18.456C2.061 17.483 2.382 16.398 2.884 15.283C3.89 13.047 5.716 10.489 8.103 8.103C10.489 5.716 13.047 3.89 15.283 2.884C16.398 2.382 17.483 2.061 18.456 2.008Z" fill="#FFF4E1"/><path d="M2.88 2.879C3.822 1.937 5.215 1.866 6.525 2.141C7.647 2.377 8.899 2.901 10.191 3.641C9.626 4.064 9.063 4.517 8.504 5.001C7.611 4.545 6.801 4.242 6.113 4.098C5.042 3.873 4.518 4.07 4.294 4.293C4.125 4.462 3.97 4.793 4.005 5.435C4.04 6.076 4.264 6.911 4.707 7.896C5.591 9.859 7.258 12.222 9.518 14.482C11.778 16.742 14.14 18.408 16.104 19.292C17.089 19.736 17.923 19.959 18.565 19.994C19.206 20.029 19.537 19.874 19.706 19.705C19.875 19.537 20.03 19.205 19.995 18.564C19.96 17.923 19.736 17.088 19.293 16.103C18.409 14.139 16.743 11.777 14.482 9.517C14.174 9.208 13.862 8.91 13.55 8.623C14.123 8.184 14.686 7.793 15.228 7.453C15.452 7.665 15.676 7.88 15.898 8.102C18.284 10.488 20.11 13.046 21.116 15.283C21.618 16.397 21.939 17.482 21.992 18.455C22.045 19.428 21.832 20.407 21.12 21.119C20.408 21.831 19.429 22.044 18.456 21.991C17.483 21.938 16.398 21.617 15.283 21.116C13.047 20.109 10.489 18.283 8.103 15.897C5.716 13.511 3.89 10.952 2.884 8.716C2.382 7.602 2.061 6.517 2.008 5.543C1.955 4.571 2.168 3.591 2.88 2.879Z" fill="#FFF4E1"/></g><rect x="336" y="301.5" width="28" height="3" fill="#F88B43"/><rect x="336" y="310.5" width="28" height="3" fill="#F88B43"/><rect x="336" y="319.5" width="28" height="3" fill="#F88B43"/><rect x="336" y="328.5" width="28" height="3" fill="#F88B43"/><rect x="336" y="337.5" width="28" height="3" fill="#F88B43"/><rect x="336" y="346.5" width="28" height="3" fill="#F88B43"/><rect x="336" y="355.5" width="28" height="3" fill="#F88B43"/><path d="M336 364.5L364 364.5L350 378.5Z" fill="#F88B43"/><text x="373" y="338" fill="#F88B43" font-family="Geist Mono, ui-monospace, SF Mono, Menlo, Consolas, monospace" font-size="24" font-weight="500" text-anchor="start" dominant-baseline="central">[confirms]</text>
</svg>
